<?xml version="1.0" standalone="no"?>
<!DOCTYPE svg PUBLIC "-//W3C//DTD SVG 20010904//EN"
 "http://www.w3.org/TR/2001/REC-SVG-20010904/DTD/svg10.dtd">
<svg version="1.0" xmlns="http://www.w3.org/2000/svg"
 width="1500.000000pt" height="1500.000000pt" viewBox="0 0 1500.000000 1500.000000"
 preserveAspectRatio="xMidYMid meet">
<metadata>
Created by potrace 1.11, written by Peter Selinger 2001-2013
</metadata>
<g transform="translate(0.000000,1500.000000) scale(0.100000,-0.100000)"
fill="#000000" stroke="none">
<path d="M7283 13512 c-29 -2 -53 -7 -53 -13 0 -5 -13 -9 -30 -9 -16 0 -30 5
-30 10 0 13 -37 13 -42 1 -1 -5 -41 -12 -88 -15 -155 -11 -332 -35 -340 -45
-3 -4 -41 -12 -85 -19 -102 -16 -175 -34 -175 -43 0 -3 -33 -9 -72 -13 -40 -4
-104 -13 -143 -21 -38 -8 -85 -15 -103 -15 -18 0 -40 -7 -48 -15 -8 -8 -37
-17 -65 -21 -28 -4 -56 -12 -62 -19 -7 -6 -37 -20 -67 -30 -30 -9 -59 -23 -65
-30 -5 -6 -54 -20 -108 -29 -54 -10 -104 -24 -111 -31 -7 -8 -31 -17 -52 -21
-44 -8 -86 -29 -122 -61 -14 -13 -31 -23 -38 -23 -7 0 -17 -6 -21 -14 -4 -7
-30 -23 -58 -35 -27 -12 -52 -25 -55 -30 -3 -5 -24 -18 -48 -30 -41 -21 -77
-47 -111 -82 -9 -10 -34 -24 -56 -33 -21 -9 -42 -20 -45 -24 -3 -5 -21 -19
-40 -32 -19 -13 -41 -32 -48 -42 -7 -10 -19 -18 -26 -18 -7 0 -23 -10 -36 -22
-14 -13 -40 -31 -59 -41 -19 -11 -43 -30 -54 -43 -10 -13 -25 -24 -33 -24 -8
0 -17 -7 -21 -15 -3 -9 -17 -22 -32 -30 -35 -18 -91 -69 -91 -83 0 -6 -10 -17
-22 -23 -12 -6 -37 -29 -57 -51 -20 -22 -51 -54 -68 -72 -18 -18 -33 -36 -33
-41 0 -4 -22 -30 -50 -57 -28 -27 -50 -51 -50 -55 0 -3 -15 -20 -32 -38 -18
-17 -42 -48 -53 -68 -11 -20 -24 -37 -29 -37 -13 0 -136 -128 -136 -142 0 -6
-16 -28 -35 -47 -55 -55 -71 -74 -78 -94 -4 -9 -17 -21 -31 -27 -13 -5 -27
-17 -30 -27 -3 -10 -19 -34 -36 -53 -16 -19 -30 -45 -30 -57 0 -13 -8 -24 -20
-28 -11 -3 -20 -14 -20 -23 0 -18 -30 -104 -39 -112 -4 -3 -16 -26 -29 -52
-13 -27 -27 -48 -32 -48 -4 0 -19 -21 -31 -47 -13 -27 -29 -54 -36 -61 -8 -8
-21 -28 -30 -45 -9 -18 -19 -34 -23 -37 -4 -3 -17 -34 -30 -70 -13 -36 -26
-67 -30 -70 -3 -3 -17 -34 -30 -70 -13 -36 -27 -67 -30 -70 -4 -3 -17 -39 -30
-80 -13 -41 -30 -80 -37 -85 -8 -6 -18 -30 -24 -54 -5 -24 -16 -50 -24 -58 -8
-8 -15 -24 -15 -36 0 -23 -30 -118 -40 -127 -10 -8 -38 -73 -45 -102 -4 -16
-10 -28 -15 -28 -4 0 -17 -38 -29 -84 -13 -47 -27 -86 -32 -88 -5 -2 -19 -57
-31 -123 -12 -66 -25 -122 -28 -125 -4 -3 -14 -57 -24 -120 -10 -63 -20 -131
-23 -150 -3 -19 -10 -38 -15 -41 -14 -9 -12 -343 2 -347 13 -5 13 -122 0 -122
-5 0 -10 -25 -10 -55 0 -30 4 -55 8 -55 5 0 12 -62 16 -137 6 -131 31 -312 45
-323 11 -9 31 -76 31 -103 0 -34 22 -117 31 -117 4 0 10 -24 14 -52 7 -49 30
-116 45 -128 4 -3 13 -27 21 -53 7 -27 22 -57 32 -68 10 -11 22 -41 27 -67 15
-89 33 -167 39 -172 4 -3 15 -31 24 -62 10 -32 22 -58 26 -58 5 0 11 -19 15
-42 8 -54 36 -128 47 -128 5 0 9 -8 9 -19 0 -10 7 -24 15 -31 8 -7 15 -21 15
-32 0 -10 6 -21 14 -24 8 -3 24 -32 36 -64 12 -32 28 -61 35 -64 8 -3 21 -19
31 -37 9 -18 25 -41 35 -53 11 -11 22 -31 25 -43 3 -12 17 -29 30 -38 13 -8
24 -21 24 -28 0 -15 63 -87 77 -87 6 0 14 -17 18 -37 8 -44 32 -93 45 -93 5 0
19 -21 32 -47 13 -27 25 -50 28 -53 3 -3 17 -21 30 -40 14 -19 43 -53 65 -75
40 -41 60 -67 71 -96 3 -9 17 -22 30 -28 14 -6 28 -19 31 -28 4 -10 17 -26 30
-36 13 -10 23 -25 23 -33 0 -8 5 -14 12 -14 16 0 158 -149 158 -166 0 -8 9
-22 20 -31 11 -10 20 -22 20 -28 0 -12 90 -107 123 -129 24 -17 149 -133 287
-268 49 -49 94 -88 100 -88 6 0 36 -25 67 -55 30 -30 75 -62 99 -72 24 -10 44
-21 44 -25 0 -5 7 -8 15 -8 17 0 20 -27 4 -32 -14 -5 -49 -95 -49 -125 0 -13
-4 -23 -10 -23 -5 0 -10 -25 -10 -55 0 -30 4 -55 9 -55 5 0 12 -16 15 -35 4
-19 12 -35 17 -35 16 0 42 -33 70 -85 5 -12 23 -30 40 -40 16 -11 29 -25 29
-30 0 -6 17 -19 38 -30 20 -11 39 -22 42 -25 3 -3 19 -16 37 -28 47 -33 103
-84 103 -95 0 -5 12 -21 28 -36 15 -15 35 -37 45 -49 20 -26 23 -78 5 -85 -10
-3 -13 -84 -13 -362 0 -278 3 -359 13 -363 6 -2 12 -12 12 -21 0 -28 40 -143
55 -158 8 -7 17 -30 20 -51 11 -60 16 -72 30 -72 16 0 25 -22 25 -63 0 -37 22
-106 37 -116 6 -3 18 -24 28 -45 10 -21 43 -64 72 -94 29 -31 53 -61 53 -68 0
-16 69 -84 85 -84 7 0 20 -18 30 -40 10 -22 22 -40 27 -40 4 0 8 -11 8 -25 0
-14 5 -25 10 -25 6 0 15 -11 20 -24 5 -13 18 -27 29 -31 12 -3 21 -13 21 -21
0 -8 13 -23 30 -32 16 -9 30 -20 30 -24 0 -5 5 -8 10 -8 10 0 69 -38 80 -51 3
-3 19 -13 35 -22 19 -9 37 -32 50 -61 11 -25 23 -46 28 -46 4 0 7 -9 7 -20 0
-36 44 -205 56 -218 7 -7 15 -34 19 -60 19 -155 33 -192 73 -192 46 0 80 -21
86 -53 9 -49 -3 -362 -14 -365 -13 -5 -13 -32 0 -32 6 0 10 -24 10 -53 0 -52
18 -87 46 -87 5 0 19 -10 30 -23 12 -12 42 -28 68 -36 25 -7 46 -19 46 -27 0
-19 18 -27 69 -29 25 -1 57 -5 71 -9 18 -6 21 -5 11 2 -19 14 -22 243 -3 249
20 7 15 43 -7 43 -25 0 -31 -26 -31 -136 0 -72 -3 -93 -15 -98 -8 -3 -15 -13
-15 -21 0 -22 -38 -10 -63 19 -16 18 -18 38 -17 156 3 164 4 155 -17 134 -14
-14 -19 -39 -21 -121 -4 -99 -5 -103 -27 -109 -32 -8 -82 23 -91 55 -7 27 -6
510 2 522 2 4 49 15 104 24 55 10 100 21 100 26 0 4 17 10 38 13 212 31 272
41 272 48 0 4 13 8 30 8 16 0 52 5 81 11 49 11 52 10 75 -15 24 -26 45 -102
59 -218 4 -32 11 -58 16 -58 5 0 9 -17 9 -39 0 -43 24 -121 43 -136 6 -6 17
-19 23 -30 6 -11 23 -26 37 -33 15 -7 27 -17 27 -23 0 -5 6 -9 14 -9 21 0 46
-28 46 -51 0 -16 -7 -19 -55 -19 -44 0 -57 4 -67 20 -7 11 -18 20 -24 20 -14
0 -91 84 -99 109 -3 12 -11 21 -16 21 -5 0 -9 11 -9 25 0 16 -6 25 -15 25 -8
0 -15 -6 -15 -14 0 -8 -6 -16 -14 -19 -8 -3 -22 -30 -31 -59 -10 -29 -24 -57
-31 -61 -8 -4 -14 -19 -14 -32 0 -14 -4 -25 -10 -25 -12 0 -13 -67 -1 -74 5
-4 19 -2 32 2 31 12 69 3 69 -16 0 -21 -99 -112 -121 -112 -27 0 -48 28 -55
71 -4 21 -10 39 -14 39 -20 0 -31 61 -25 125 6 55 5 67 -6 63 -8 -3 -16 -15
-18 -29 -1 -13 -7 -27 -12 -30 -5 -3 -12 -66 -17 -140 l-7 -134 -42 3 c-24 1
-43 0 -43 -2 0 -14 35 -36 56 -36 35 0 62 32 69 85 7 45 26 57 33 21 6 -30 51
-66 82 -66 17 0 30 5 30 10 0 6 6 10 13 10 7 0 34 22 60 50 49 52 56 56 85 41
40 -20 94 -32 136 -30 52 3 76 24 97 85 7 22 17 43 21 48 4 6 8 18 8 28 0 10
4 18 10 18 5 0 12 12 16 28 15 67 39 142 46 142 4 0 12 18 18 40 6 21 16 45
23 52 37 37 40 200 4 219 -9 5 -23 16 -31 24 -8 8 -21 15 -30 15 -8 0 -17 4
-20 9 -3 4 -26 14 -51 21 -25 7 -45 17 -45 21 0 5 -8 9 -18 9 -10 0 -35 9 -57
20 -22 11 -47 20 -57 20 -10 0 -18 5 -18 10 0 6 -9 10 -20 10 -26 0 -26 20 0
27 27 7 50 53 50 98 0 19 5 35 10 35 6 0 10 7 10 15 0 8 -4 15 -8 15 -5 0 -12
51 -15 113 -7 126 -23 217 -41 232 -15 13 -46 74 -46 92 0 7 -9 21 -20 30 -11
10 -20 25 -20 35 0 9 -14 32 -30 50 -17 18 -36 45 -43 61 -6 15 -17 27 -24 27
-7 0 -20 15 -29 33 -9 17 -20 34 -24 37 -4 3 -12 32 -19 65 -7 33 -18 83 -24
110 -5 28 -15 53 -21 57 -15 10 -14 350 2 356 7 2 12 15 12 28 0 14 9 50 20
81 11 32 20 74 20 95 0 21 5 38 10 38 6 0 10 27 10 60 0 33 -4 60 -10 60 -6 0
-10 28 -10 63 -1 34 -5 94 -10 132 -6 39 -13 93 -16 120 -4 28 -12 55 -19 60
-7 6 -16 40 -20 76 l-7 66 38 6 c22 4 84 7 140 7 l101 0 7 -61 c18 -177 -1
-315 -50 -368 -19 -20 -24 -35 -22 -66 3 -39 4 -40 38 -40 l35 0 7 69 c4 38
11 72 16 75 18 12 32 113 32 237 l0 124 40 16 c22 9 40 20 40 25 0 14 38 11
44 -3 5 -10 7 -10 12 0 6 14 94 17 94 3 0 -5 13 -14 29 -19 23 -8 33 -20 42
-51 7 -23 16 -41 21 -41 4 0 8 -29 8 -65 0 -36 -4 -65 -8 -65 -4 0 -16 -32
-27 -70 -11 -38 -23 -70 -27 -70 -4 0 -8 -16 -8 -35 0 -19 5 -35 10 -35 6 0
10 -6 10 -14 0 -8 11 -23 25 -34 14 -11 25 -25 25 -30 0 -15 41 -42 63 -42 27
0 32 27 12 71 -11 24 -25 39 -36 39 -32 0 -53 72 -29 96 6 6 16 45 22 87 7 42
16 77 20 77 5 0 8 16 8 35 0 19 -4 35 -8 35 -4 0 -14 21 -21 46 -11 37 -11 50
-1 69 16 30 18 30 438 61 56 4 102 10 102 14 0 4 15 10 33 13 109 18 223 41
227 47 3 3 52 11 110 18 112 12 200 32 200 44 0 5 8 8 17 8 47 0 146 24 161
40 15 15 92 35 181 46 19 3 39 10 45 17 6 7 45 21 86 31 41 10 77 21 80 25 3
3 28 17 55 31 28 14 56 30 63 37 7 7 30 17 52 23 22 6 46 17 54 26 9 8 41 24
72 34 31 11 62 26 68 33 6 7 31 22 56 32 25 11 55 30 67 42 12 13 27 23 33 23
5 0 10 4 10 9 0 5 25 17 56 27 31 9 63 24 72 33 14 15 37 30 69 47 7 3 64 57
125 120 62 63 116 114 120 114 4 0 31 25 60 55 29 30 57 55 62 55 5 0 35 26
67 58 82 80 91 89 117 114 12 12 22 28 22 35 0 8 8 17 18 20 18 7 92 78 92 90
0 3 26 32 58 64 60 60 98 103 104 117 3 10 65 86 111 136 15 17 27 36 27 43 0
6 8 18 18 25 9 7 26 30 37 51 11 21 27 43 36 47 9 5 22 23 29 40 7 16 16 30
21 30 4 0 10 8 14 19 3 10 16 30 30 45 13 14 33 54 46 88 12 35 28 67 35 71 8
4 21 25 29 45 9 20 19 39 23 42 4 3 18 25 31 50 14 25 27 47 31 50 4 3 17 26
30 53 13 26 27 47 31 47 3 0 17 26 30 58 12 31 26 59 30 62 4 3 15 24 24 48
10 23 21 42 25 42 4 0 11 16 15 36 7 41 35 104 46 104 9 0 39 75 39 99 0 11 6
26 14 34 14 13 43 149 53 252 3 28 9 52 12 55 7 5 21 55 43 153 6 26 14 47 19
47 4 0 11 17 14 38 4 20 13 69 21 109 8 40 14 106 14 148 0 41 4 75 9 75 12 0
32 182 40 380 8 187 -3 481 -19 511 -6 10 -10 36 -10 58 0 23 -4 41 -8 41 -4
0 -13 46 -20 103 -27 217 -34 267 -41 267 -9 0 -27 53 -41 120 -5 24 -14 46
-19 48 -6 2 -11 27 -11 55 0 29 -5 68 -10 87 -27 105 -34 126 -46 133 -7 4
-15 22 -19 40 -14 74 -29 127 -36 127 -4 0 -17 26 -30 58 -12 31 -26 59 -30
62 -5 3 -16 24 -25 45 -9 22 -19 42 -23 45 -4 3 -18 30 -30 60 -13 30 -26 57
-30 60 -3 3 -11 19 -18 35 -6 17 -17 45 -25 64 -7 19 -23 44 -34 56 -12 12
-25 41 -29 63 -4 23 -10 42 -15 42 -4 0 -15 19 -25 43 -9 23 -25 50 -36 60
-10 10 -19 28 -19 41 0 27 -27 108 -39 116 -4 3 -18 31 -31 63 -13 31 -27 57
-32 57 -4 0 -8 7 -8 15 0 9 -10 26 -22 39 -27 28 -45 53 -58 84 -5 12 -13 22
-17 22 -5 0 -19 23 -32 50 -13 28 -27 50 -32 50 -4 0 -18 17 -30 38 -13 20
-29 41 -36 45 -7 4 -13 14 -13 21 0 7 -13 28 -30 46 -16 18 -30 36 -30 39 0 3
-18 26 -40 51 -22 25 -40 48 -40 51 0 12 -66 79 -78 79 -6 0 -19 12 -29 28
-10 15 -23 31 -30 35 -7 4 -13 14 -13 21 0 7 -21 31 -47 52 -26 21 -77 69
-114 107 -38 37 -73 67 -79 67 -5 0 -10 6 -10 14 0 7 -12 22 -27 31 -15 10
-48 39 -74 64 -69 67 -100 92 -141 113 -21 11 -38 24 -38 28 0 4 -15 15 -33
23 -30 15 -63 40 -141 110 -17 15 -41 30 -53 33 -13 3 -23 10 -23 15 0 5 -6 9
-14 9 -7 0 -24 10 -37 23 -14 12 -46 33 -72 47 -26 14 -47 28 -47 32 0 4 -21
17 -47 29 -25 12 -53 27 -60 35 -8 8 -20 14 -27 14 -7 0 -24 10 -38 23 -14 13
-51 34 -82 46 -31 13 -56 27 -56 32 0 5 -8 9 -19 9 -10 0 -24 7 -31 15 -7 8
-28 18 -48 21 -20 4 -44 15 -54 24 -10 9 -36 23 -58 30 -22 7 -40 16 -40 20 0
4 -31 16 -70 26 -38 10 -70 21 -70 24 0 4 -42 12 -92 19 -112 14 -191 31 -198
42 -6 9 -157 35 -260 45 -36 4 -67 10 -70 14 -11 16 -344 43 -548 45 -148 1
-215 4 -220 12 -7 12 -319 22 -439 15z m301 -115 c165 -2 220 -5 224 -14 5
-16 182 -18 182 -3 0 6 37 10 90 10 50 0 90 -4 90 -8 0 -11 233 -41 359 -47
58 -2 107 -9 111 -15 3 -5 41 -14 83 -20 92 -11 130 -20 138 -32 3 -5 23 -11
45 -14 69 -9 194 -38 194 -44 0 -4 28 -15 63 -25 34 -10 69 -26 77 -36 8 -10
32 -25 53 -34 20 -8 37 -19 37 -23 0 -5 25 -19 55 -33 30 -13 55 -27 55 -31 0
-5 5 -8 11 -8 16 0 101 -41 116 -56 8 -8 20 -14 28 -14 30 0 103 -48 149 -97
16 -18 35 -33 42 -33 7 0 17 -6 21 -13 4 -8 31 -25 58 -38 28 -13 52 -27 55
-31 3 -4 28 -14 55 -24 28 -9 61 -27 74 -40 13 -13 29 -24 35 -24 6 0 33 -22
59 -50 26 -27 51 -50 56 -50 4 0 16 -9 26 -20 10 -11 22 -20 26 -20 11 0 47
-28 78 -62 14 -16 31 -28 38 -28 7 0 20 -11 29 -25 9 -14 22 -25 30 -25 7 0
23 -13 36 -30 12 -16 27 -30 33 -30 13 0 125 -108 125 -121 0 -5 11 -15 25
-21 14 -6 25 -17 25 -25 0 -21 -16 -15 -34 12 -9 14 -21 25 -27 25 -6 0 -38
27 -70 60 -32 33 -62 60 -67 60 -5 0 -14 10 -20 23 -6 12 -11 16 -11 8 -1 -18
28 -51 44 -51 6 0 17 -11 23 -25 6 -14 18 -25 25 -25 8 0 25 -16 38 -35 13
-19 27 -35 32 -35 4 0 7 -7 7 -15 0 -9 13 -24 30 -33 16 -9 30 -23 30 -29 0
-7 9 -22 20 -33 11 -11 20 -27 20 -35 0 -8 5 -15 10 -15 14 0 12 -27 -2 -34
-7 -3 0 -4 16 -1 23 5 27 3 22 -10 -4 -11 2 -17 25 -22 23 -4 30 -11 29 -27
-3 -30 10 -66 24 -66 6 0 20 -14 30 -32 19 -30 19 -31 1 -24 -18 7 -18 6 -1
-13 15 -17 17 -25 7 -52 -15 -43 -14 -49 7 -49 13 0 23 -13 32 -42 8 -24 19
-46 24 -50 6 -4 5 -13 -4 -23 -12 -14 -10 -15 14 -6 21 9 26 8 26 -5 0 -9 -9
-18 -20 -21 -11 -3 -20 -12 -20 -20 0 -10 7 -14 20 -10 17 4 20 0 20 -23 0
-17 -7 -33 -17 -39 -10 -6 -12 -11 -5 -11 6 0 12 -11 12 -24 0 -14 5 -28 10
-31 15 -9 23 21 12 41 -11 19 -4 54 10 54 5 0 6 -9 3 -20 -7 -22 20 -30 28 -7
2 6 3 -21 1 -60 -4 -76 0 -88 17 -50 9 21 9 20 6 -5 -4 -29 16 -68 28 -56 4 4
14 0 22 -8 9 -8 12 -18 8 -22 -4 -4 -10 -2 -12 5 -5 15 -33 5 -33 -11 0 -6 14
-17 31 -23 17 -7 28 -17 24 -22 -3 -6 0 -11 9 -11 8 0 16 6 19 13 2 6 8 8 13
4 5 -4 2 -12 -5 -16 -21 -13 5 -54 30 -46 15 5 19 2 19 -14 0 -12 4 -21 9 -21
11 0 12 -78 1 -85 -5 -3 -7 -12 -3 -21 5 -12 7 -12 19 3 13 17 13 17 14 -1 0
-10 -7 -24 -15 -30 -12 -10 -12 -14 1 -31 11 -14 15 -15 14 -5 -1 8 -2 20 -1
26 1 15 39 25 47 13 3 -5 -1 -9 -9 -9 -10 0 -13 -8 -10 -25 3 -13 8 -24 12
-23 21 2 31 -4 31 -22 0 -11 -7 -20 -15 -20 -8 0 -15 7 -15 15 0 8 -4 15 -10
15 -21 0 -9 -31 26 -67 32 -35 33 -38 15 -41 -20 -3 -30 -22 -12 -22 11 0 21
-24 28 -65 3 -16 9 -31 14 -33 5 -2 9 -15 9 -28 0 -14 6 -24 14 -24 8 0 18
-19 25 -45 6 -24 18 -50 26 -57 39 -33 46 -42 52 -70 5 -25 9 -29 29 -24 19 5
24 2 24 -13 0 -11 9 -25 20 -31 15 -8 20 -8 20 1 0 6 7 9 15 5 8 -3 15 -1 15
4 0 6 7 10 16 10 10 0 14 -6 10 -15 -3 -8 -1 -15 4 -15 6 0 10 -7 10 -15 0 -8
4 -15 10 -15 5 0 8 -12 6 -27 -2 -16 -1 -21 1 -11 7 28 33 30 45 3 6 -14 17
-25 25 -25 18 0 17 35 -2 53 -8 9 -22 40 -32 71 -9 31 -21 56 -25 56 -4 0 -8
5 -8 10 0 6 4 10 8 10 10 0 42 -65 42 -85 0 -8 4 -15 10 -15 11 0 50 -121 50
-156 0 -13 4 -24 9 -24 8 0 15 -31 41 -174 5 -33 14 -62 19 -65 4 -3 11 -17
14 -31 29 -117 37 -165 37 -227 0 -40 4 -73 9 -73 8 0 18 -74 26 -185 8 -98
29 -235 37 -235 4 0 8 -76 8 -170 0 -93 -4 -170 -8 -170 -5 0 -14 -37 -21 -82
-18 -122 -21 -150 -28 -285 -3 -68 -10 -123 -14 -123 -5 0 -9 -18 -9 -40 0
-44 -35 -180 -48 -189 -5 -3 -12 -19 -16 -36 -25 -110 -36 -176 -36 -217 0
-27 -4 -48 -10 -48 -5 0 -10 -11 -10 -24 0 -14 -4 -27 -8 -30 -5 -3 -15 -31
-22 -63 -8 -32 -17 -60 -20 -63 -4 -3 -15 -26 -25 -52 -10 -27 -21 -48 -25
-48 -4 0 -18 -28 -31 -62 -12 -35 -26 -65 -29 -68 -4 -3 -17 -35 -29 -72 -13
-38 -26 -68 -31 -68 -4 0 -13 -13 -20 -29 -6 -16 -19 -37 -28 -47 -9 -11 -23
-31 -30 -45 -8 -14 -27 -41 -44 -60 -16 -19 -34 -46 -40 -61 -5 -16 -14 -28
-19 -28 -12 0 -49 -75 -49 -100 0 -11 -4 -20 -8 -20 -4 0 -14 -20 -21 -46 -7
-25 -21 -52 -30 -61 -15 -15 -31 -39 -47 -71 -4 -8 -18 -25 -30 -38 -13 -12
-24 -29 -24 -35 0 -14 -5 -19 -89 -107 -33 -35 -70 -77 -83 -95 -12 -18 -28
-36 -35 -40 -7 -4 -20 -22 -29 -40 -10 -18 -25 -38 -35 -45 -11 -7 -19 -19
-19 -27 0 -8 -9 -19 -20 -25 -11 -6 -20 -18 -20 -28 0 -9 -26 -43 -58 -74 -32
-31 -76 -78 -98 -104 -21 -26 -46 -54 -54 -61 -8 -7 -37 -32 -64 -56 -27 -23
-62 -57 -79 -74 -17 -18 -35 -33 -41 -33 -6 0 -17 -9 -24 -20 -7 -11 -17 -20
-23 -20 -12 0 -89 -75 -89 -87 0 -3 -27 -32 -60 -64 -45 -43 -60 -52 -60 -38
0 30 -32 102 -57 129 -13 14 -23 30 -23 37 0 7 -4 13 -9 13 -5 0 -16 15 -25
34 -9 18 -31 51 -51 72 -19 22 -35 43 -35 48 0 5 -8 15 -17 22 -21 15 -15 18
50 29 20 3 37 9 37 13 0 4 22 18 50 31 27 13 50 27 50 32 0 4 9 11 20 14 29 9
92 75 112 117 9 20 20 53 24 74 4 22 11 42 16 45 17 11 34 124 32 222 -2 95
-19 187 -34 187 -13 0 -20 39 -36 205 -8 88 -19 162 -23 165 -5 3 -17 43 -26
89 -14 62 -25 91 -46 112 -25 25 -30 27 -70 18 -24 -6 -45 -14 -47 -20 -2 -5
-9 -9 -15 -9 -7 0 -25 -7 -40 -15 -31 -16 -30 -20 -11 45 3 11 10 20 16 20 5
0 19 11 30 25 11 14 26 25 33 25 7 0 20 6 27 13 7 6 33 22 58 34 25 12 51 31
58 43 7 11 17 20 24 20 6 0 26 15 43 33 38 40 72 67 84 67 16 0 87 89 100 127
24 67 41 76 113 67 75 -9 216 -5 240 7 21 11 78 68 78 78 0 4 -17 17 -37 29
-24 13 -31 22 -20 22 9 0 17 4 17 8 0 5 23 14 50 21 50 13 120 65 120 90 0 12
29 61 41 71 3 3 12 16 18 29 11 19 10 26 -2 38 -17 18 -89 10 -110 -12 -21
-20 -189 -39 -231 -25 -49 16 -100 68 -121 123 -10 26 -21 47 -25 47 -11 0
-30 97 -30 155 0 54 13 98 38 124 7 8 20 24 29 37 8 13 22 24 29 24 8 0 14 4
14 9 0 5 19 29 43 54 61 65 65 71 88 129 11 29 25 55 30 58 4 3 16 37 26 75
10 39 23 74 28 78 6 6 6 10 -2 14 -7 2 -13 12 -13 22 0 27 -30 135 -39 141 -5
3 -16 20 -26 39 -22 43 -128 151 -148 151 -28 0 -38 -29 -41 -118 -2 -87 -3
-91 -33 -120 l-32 -29 -6 39 c-4 21 -11 38 -16 38 -5 0 -9 32 -9 70 0 39 4 70
9 70 5 0 11 8 14 18 7 22 37 71 60 96 9 11 17 26 17 33 0 7 11 20 24 28 16 11
29 36 41 78 9 34 22 65 27 68 15 10 15 172 0 177 -7 2 -12 10 -12 18 0 12 8
13 36 8 40 -7 174 14 174 28 0 4 8 8 18 8 10 0 26 6 37 14 11 7 35 17 53 21
17 3 32 10 32 14 0 4 13 14 28 23 15 9 43 30 62 47 19 17 40 31 47 31 14 0 27
36 18 50 -8 13 -48 13 -62 -1 -13 -13 -263 -32 -323 -24 -46 6 -104 30 -129
53 -8 8 -25 18 -38 23 -13 5 -28 20 -33 33 -5 14 -17 29 -28 35 -10 5 -24 29
-31 51 -13 45 -7 65 12 40 12 -15 58 -33 114 -45 17 -3 41 -15 54 -26 31 -27
79 -26 79 2 0 14 -11 25 -37 36 -21 8 -40 18 -43 22 -3 4 -22 17 -42 30 -21
12 -38 26 -38 31 0 5 -8 11 -17 14 -10 4 -34 20 -53 37 -19 17 -42 36 -50 43
-8 6 -22 20 -30 30 -14 18 -13 19 20 13 19 -3 71 -9 115 -12 44 -4 82 -10 85
-14 3 -5 42 -14 87 -21 65 -10 100 -10 165 0 46 6 85 15 88 19 3 3 19 11 35
16 22 8 30 17 30 35 0 23 -4 25 -129 42 -71 10 -132 22 -135 26 -3 5 -17 11
-31 15 -64 14 -145 39 -150 46 -3 4 -35 18 -72 30 -38 13 -68 27 -68 32 0 5
-9 9 -19 9 -11 0 -23 5 -26 10 -3 6 -15 10 -26 10 -10 0 -27 8 -37 18 -10 9
-27 22 -38 28 -21 13 -22 35 -10 164 18 190 -1 488 -31 509 -5 3 -19 27 -32
53 -12 25 -28 49 -36 52 -8 3 -21 20 -28 38 -15 36 -184 208 -203 208 -7 0
-15 8 -19 18 -3 11 -17 24 -30 30 -14 6 -25 16 -25 21 0 10 -74 35 -135 46
-22 4 -42 11 -46 16 -3 5 -41 18 -85 29 -43 11 -80 25 -82 30 -6 17 -69 12
-76 -6 -6 -16 9 -44 24 -44 19 0 82 -76 93 -112 7 -22 20 -44 29 -49 18 -10
48 -63 48 -86 0 -7 4 -13 9 -13 5 0 14 -15 21 -32 6 -18 16 -41 21 -50 5 -10
9 -27 9 -38 0 -11 5 -20 10 -20 6 0 10 -9 10 -20 0 -41 -18 -18 -40 52 -12 40
-29 78 -36 86 -8 7 -14 22 -14 33 0 12 -9 21 -25 25 -14 3 -25 10 -25 16 0 11
-118 128 -130 128 -17 0 -40 -12 -40 -22 0 -5 13 -23 30 -41 16 -18 30 -37 30
-43 0 -7 6 -14 14 -17 14 -6 46 -87 46 -118 0 -10 4 -19 10 -21 5 -2 15 -36
22 -76 11 -64 10 -74 -5 -89 -13 -14 -21 -15 -42 -5 -14 7 -37 12 -51 12 -13
0 -27 7 -30 15 -3 8 -27 24 -52 36 -26 13 -52 30 -59 40 -7 9 -26 22 -43 29
-16 7 -30 16 -30 20 0 4 -18 15 -40 25 -22 10 -42 26 -45 36 -4 11 -10 19 -15
19 -5 0 -21 11 -36 25 -15 14 -31 25 -36 25 -14 0 -81 32 -94 45 -23 22 -208
47 -322 44 -103 -4 -110 -3 -101 13 5 10 25 25 44 33 19 7 35 18 35 23 0 5 19
14 43 21 23 7 52 17 65 22 13 5 34 9 47 9 13 0 25 6 27 12 6 17 140 18 145 1
3 -7 19 -13 38 -13 34 0 155 -35 165 -48 3 -4 22 -16 43 -26 21 -11 43 -28 48
-38 22 -41 76 -6 58 37 -4 11 -8 38 -8 60 -1 29 -7 44 -21 53 -11 7 -20 19
-20 27 0 9 -11 20 -25 25 -14 5 -25 15 -25 23 0 7 -13 21 -30 30 -16 10 -35
24 -43 31 -21 21 -69 44 -110 51 -20 4 -37 10 -37 14 0 4 -41 13 -91 20 -74
11 -120 11 -245 0 -85 -7 -154 -16 -154 -20 0 -4 -15 -9 -32 -12 -58 -9 -150
-35 -157 -43 -3 -5 -26 -20 -51 -33 -25 -14 -51 -31 -58 -38 -7 -7 -19 -13
-26 -13 -7 0 -22 -9 -33 -19 -12 -11 -37 -28 -56 -39 -19 -10 -43 -27 -53 -37
-19 -18 -19 -18 -22 33 -2 29 -7 52 -13 52 -5 0 -9 7 -9 16 0 22 -32 118 -41
124 -4 3 -12 23 -18 45 -11 46 -33 108 -42 115 -3 3 -16 28 -30 55 -13 28 -27
52 -31 55 -3 3 -14 25 -24 50 -16 39 -75 110 -93 110 -3 0 -17 9 -31 20 -14
11 -32 20 -42 20 -9 0 -18 5 -20 11 -6 18 -133 16 -151 -3 -9 -9 -42 -19 -73
-23 -72 -9 -104 -23 -104 -46 0 -20 54 -35 89 -26 23 6 113 -10 120 -21 4 -5
27 -18 53 -31 50 -24 71 -51 38 -51 -10 0 -26 8 -36 17 -14 15 -36 18 -121 18
-60 0 -107 -4 -111 -10 -4 -6 -26 -19 -49 -29 -24 -11 -43 -22 -43 -25 0 -3
-16 -17 -35 -30 -19 -13 -35 -29 -35 -37 0 -7 -8 -19 -18 -26 -9 -7 -26 -32
-36 -55 -13 -28 -25 -43 -38 -43 -10 0 -18 5 -18 10 0 11 -107 14 -112 2 -1
-4 -36 -18 -77 -31 -41 -13 -81 -30 -89 -38 -8 -8 -27 -17 -43 -20 -15 -3 -36
-13 -46 -22 -10 -9 -40 -27 -68 -40 -27 -14 -52 -27 -55 -30 -3 -3 -23 -15
-44 -26 -22 -11 -50 -29 -62 -40 -57 -51 -78 -63 -129 -80 -30 -9 -55 -20 -55
-25 0 -14 -132 -34 -225 -35 -132 0 -159 16 -181 107 -8 34 14 164 30 181 7 6
22 33 35 58 16 32 35 52 67 69 24 14 46 30 48 37 3 7 12 13 19 13 8 0 45 29
83 65 38 36 79 68 91 71 23 6 37 29 27 45 -3 5 -25 9 -49 9 -51 0 -238 -30
-245 -39 -3 -4 -25 -13 -49 -21 -24 -8 -49 -19 -55 -25 -6 -7 -35 -20 -64 -29
-29 -10 -58 -23 -65 -29 -6 -7 -32 -23 -56 -36 -48 -26 -161 -135 -161 -155 0
-7 -9 -22 -20 -34 -11 -12 -27 -50 -36 -84 -27 -103 -9 -340 27 -368 10 -7 39
-80 39 -95 0 -8 -26 -19 -66 -28 -36 -9 -71 -22 -77 -30 -7 -8 -28 -18 -48
-21 -20 -3 -45 -17 -57 -31 -12 -14 -31 -25 -41 -25 -19 0 -81 -29 -91 -42 -3
-4 -27 -17 -53 -28 -26 -12 -47 -25 -47 -31 0 -5 -8 -12 -17 -16 -10 -3 -40
-29 -68 -57 -27 -28 -58 -56 -70 -61 -11 -6 -26 -23 -33 -38 -7 -15 -20 -27
-27 -27 -8 0 -21 -16 -29 -35 -8 -19 -19 -35 -23 -35 -4 0 -16 -20 -26 -45
-11 -25 -23 -45 -27 -45 -5 0 -18 -31 -30 -69 -12 -38 -27 -72 -35 -75 -7 -2
-19 -30 -25 -62 -9 -41 -17 -58 -31 -61 -10 -3 -19 -9 -19 -13 0 -32 -205 -64
-262 -42 -15 6 -34 26 -43 46 -9 19 -23 37 -31 40 -8 3 -14 12 -14 19 0 8 -7
20 -15 27 -8 7 -15 21 -15 31 0 11 -4 19 -9 19 -5 0 -11 22 -15 48 -3 27 -13
57 -21 68 -8 10 -15 27 -15 37 0 10 -8 17 -20 17 -23 0 -40 -34 -40 -81 0 -16
-4 -29 -10 -29 -5 0 -10 -9 -10 -20 0 -11 4 -20 9 -20 4 0 11 -24 14 -53 8
-62 35 -147 48 -147 5 0 9 -6 9 -13 0 -8 9 -22 20 -32 11 -10 20 -21 20 -26 0
-10 70 -79 81 -79 5 0 9 -4 9 -9 0 -11 -61 4 -69 17 -3 5 -28 17 -54 27 -27
10 -51 24 -54 31 -3 7 -20 22 -39 33 -19 11 -34 26 -34 32 0 6 -10 20 -21 30
-32 28 -61 9 -52 -34 3 -17 9 -34 13 -37 4 -3 11 -25 15 -49 4 -24 16 -52 26
-62 10 -10 19 -23 19 -29 0 -5 15 -24 33 -42 19 -18 42 -45 52 -60 9 -16 23
-28 30 -28 7 0 18 -7 25 -15 7 -8 21 -15 30 -15 10 0 20 -4 22 -10 3 -10 125
-40 166 -40 12 0 22 -6 22 -14 0 -15 -28 -71 -45 -92 -5 -7 -23 -29 -40 -50
-16 -21 -40 -49 -52 -61 -13 -13 -23 -28 -23 -33 0 -4 -12 -19 -28 -32 -25
-21 -72 -114 -72 -144 0 -7 -5 -14 -11 -16 -16 -5 -39 -121 -39 -203 0 -106
32 -368 47 -380 14 -11 43 -88 43 -115 0 -10 6 -20 13 -23 7 -2 19 -29 26 -58
7 -30 18 -58 25 -64 6 -5 18 -23 26 -39 15 -30 117 -136 130 -136 4 0 23 -13
41 -30 19 -16 46 -32 62 -35 15 -4 27 -10 27 -14 0 -11 116 -34 139 -26 15 5
21 2 21 -9 0 -9 -7 -16 -16 -16 -23 0 -53 -41 -54 -72 0 -15 -7 -33 -15 -42
-16 -15 -22 -146 -7 -146 7 0 43 -140 42 -167 0 -6 6 -18 13 -25 7 -7 24 -37
37 -65 14 -29 28 -53 33 -53 4 0 12 -11 17 -25 5 -14 20 -29 33 -34 14 -5 27
-17 30 -25 4 -9 12 -16 19 -16 37 0 118 -124 118 -181 0 -11 4 -19 9 -19 5 0
11 -13 14 -28 5 -25 40 -71 99 -130 36 -36 50 -46 93 -67 22 -11 43 -24 46
-29 11 -14 109 -26 177 -21 45 4 64 1 66 -8 3 -6 10 -33 17 -59 7 -27 17 -48
21 -48 4 0 8 -29 8 -65 0 -36 -4 -65 -9 -65 -5 0 -12 -16 -16 -36 -3 -20 -16
-46 -28 -58 -12 -12 -30 -34 -40 -49 -9 -15 -23 -27 -31 -27 -7 0 -25 -12 -39
-26 -17 -16 -42 -28 -72 -32 -25 -4 -46 -10 -45 -14 0 -5 0 -15 0 -22 0 -9 22
-22 55 -32 30 -10 55 -21 55 -25 0 -10 58 -29 87 -29 31 0 103 23 103 33 0 4
13 13 30 18 16 6 32 19 35 29 3 10 12 21 20 24 13 4 14 -4 9 -52 -4 -31 -10
-59 -15 -62 -4 -3 -10 -22 -14 -43 -4 -20 -18 -47 -31 -60 -13 -12 -24 -27
-24 -34 0 -6 -11 -20 -24 -30 -13 -11 -32 -35 -43 -54 -27 -50 -142 -159 -168
-159 -19 0 -36 -25 -29 -44 6 -16 64 -24 64 -8 0 5 25 19 55 31 30 13 55 27
55 32 0 5 20 18 45 30 25 12 45 24 45 29 0 4 18 13 40 20 23 7 51 23 63 35 12
12 34 30 50 40 15 9 27 23 27 30 0 7 9 15 20 18 11 3 24 17 30 31 5 14 14 26
20 26 6 0 20 21 31 47 11 26 25 50 30 54 13 8 49 108 49 136 0 28 -3 28 54 3
25 -12 46 -27 46 -35 0 -8 6 -18 14 -22 23 -13 41 -238 28 -337 -6 -43 -14
-82 -19 -85 -15 -11 -30 -46 -26 -58 8 -24 44 -13 80 25 32 33 35 34 29 12 -4
-14 -10 -35 -13 -47 -3 -13 -9 -23 -14 -23 -5 0 -9 -29 -9 -63 0 -63 -1 -65
-48 -113 -26 -27 -70 -60 -97 -74 -28 -14 -51 -28 -53 -32 -2 -5 -47 -8 -101
-8 -77 0 -105 -4 -136 -20 -21 -11 -41 -23 -44 -28 -3 -4 -19 -15 -34 -25 -15
-10 -32 -29 -37 -43 -5 -13 -13 -24 -18 -24 -9 0 -52 -123 -52 -148 0 -7 -4
-12 -10 -12 -5 0 -10 -5 -10 -11 0 -12 -41 -100 -51 -109 -3 -3 -11 -32 -18
-65 -7 -33 -14 -67 -17 -76 -3 -9 -35 -25 -82 -40 -42 -13 -81 -29 -87 -35 -5
-6 -31 -20 -57 -30 -27 -11 -48 -22 -48 -26 0 -5 -11 -8 -25 -8 -14 0 -25 5
-25 11 0 5 -16 17 -35 25 -37 15 -115 82 -115 98 0 15 -50 56 -69 56 -10 0
-38 20 -62 45 -24 25 -47 45 -51 45 -13 0 -287 281 -293 301 -4 10 -12 19 -19
19 -18 0 -119 99 -141 139 -25 44 -52 78 -87 110 -16 14 -28 31 -28 38 0 7 -5
13 -11 13 -21 0 -136 126 -160 176 -13 27 -28 51 -32 53 -5 2 -18 24 -28 49
-11 26 -23 49 -27 52 -9 7 -30 40 -42 68 -5 12 -13 22 -18 22 -5 0 -20 21 -33
47 -13 26 -32 56 -41 65 -10 10 -18 24 -18 32 0 7 -26 41 -57 74 -92 97 -98
105 -113 142 -13 33 -22 45 -75 105 -26 29 -55 83 -55 100 0 8 -8 22 -18 32
-10 10 -26 49 -35 87 -10 39 -22 73 -27 76 -6 4 -17 38 -25 77 -17 80 -25 106
-37 114 -4 3 -18 44 -29 92 -12 48 -25 87 -30 87 -5 0 -9 7 -9 16 0 15 -29 74
-41 84 -11 9 -49 84 -49 97 0 7 -4 13 -9 13 -13 0 -42 103 -47 169 -3 31 -8
58 -13 61 -4 3 -11 30 -15 60 -25 200 -36 315 -36 383 0 53 -4 83 -14 92 -18
18 -32 380 -17 445 6 25 11 60 11 78 0 17 4 32 8 32 5 0 12 58 15 130 7 124
32 289 47 300 4 3 17 38 30 78 13 39 27 72 31 72 4 0 10 17 14 38 7 36 33 102
45 112 11 9 40 95 40 118 0 12 4 22 9 22 5 0 17 32 26 70 10 39 23 76 29 83 7
7 20 38 30 70 10 32 24 64 32 72 8 7 14 18 14 23 0 21 34 118 45 127 6 6 22
37 36 70 13 33 26 62 29 65 12 11 39 81 45 114 4 20 11 36 15 36 4 0 13 13 20
30 7 16 22 40 35 52 12 13 28 40 36 61 7 20 16 37 20 37 4 0 10 14 14 31 9 39
24 69 51 97 12 12 26 40 33 61 6 22 18 42 26 45 8 3 15 12 15 21 0 16 26 48
112 137 31 32 59 64 62 71 22 41 36 60 55 73 11 8 21 21 21 27 0 7 8 20 18 29
9 9 37 40 62 68 44 50 175 189 356 377 49 51 95 93 103 93 14 0 81 66 81 79 0
10 99 101 109 101 5 0 16 6 23 13 7 6 34 22 61 35 26 13 47 27 47 31 0 4 19
18 43 31 23 13 44 27 47 30 3 4 24 17 48 29 23 12 42 25 42 30 0 5 16 16 35
25 19 9 39 25 44 35 5 9 28 23 50 31 23 7 41 17 41 22 0 5 20 17 44 28 24 10
45 22 47 27 8 17 65 41 114 48 28 4 52 11 55 14 3 4 34 18 70 30 36 13 69 29
75 35 5 7 41 20 80 30 38 10 72 21 75 24 6 8 52 24 123 42 26 7 47 16 47 21 0
4 30 11 68 14 37 4 85 14 107 21 22 8 71 14 108 14 53 0 72 4 88 19 12 11 44
23 73 26 28 4 53 11 56 15 7 9 248 50 299 50 22 0 41 5 43 10 5 15 203 28 333
23 61 -3 209 -6 329 -6z m296 -898 c12 -22 19 -46 16 -52 -3 -7 -5 -6 -5 3 -1
8 -12 27 -26 42 -26 28 -32 48 -15 48 5 0 19 -18 30 -41z m-292 -227 c2 -7 12
-12 21 -12 23 0 101 -85 101 -110 0 -10 6 -25 13 -32 16 -16 30 -118 21 -154
-7 -28 -31 -29 -48 -1 -17 29 -180 190 -212 210 -16 10 -37 21 -46 24 -10 3
-18 9 -18 14 0 4 -18 13 -40 19 -40 11 -46 30 -9 30 10 0 19 4 19 9 0 16 31
20 114 17 49 -2 81 -7 84 -14z m295 -6 c6 -16 -2 -28 -14 -20 -12 7 -11 34 0
34 5 0 11 -6 14 -14z m37 -51 c0 -8 5 -15 10 -15 13 0 13 -27 0 -35 -6 -4 -10
-3 -9 2 4 21 -2 33 -16 33 -8 0 -15 7 -15 15 0 8 7 15 15 15 8 0 15 -7 15 -15z
m940 -65 c0 -5 -9 -10 -20 -10 -11 0 -20 5 -20 10 0 6 9 10 20 10 11 0 20 -4
20 -10z m-876 -26 c3 -9 5 -41 5 -72 -1 -31 -3 -49 -6 -39 -2 9 -9 17 -14 17
-5 0 -9 18 -9 39 0 22 -4 43 -10 46 -17 10 -11 25 9 25 10 0 22 -7 25 -16z
m876 -14 c0 -5 -7 -10 -15 -10 -8 0 -25 -10 -39 -22 -53 -49 -55 -50 -72 -34
-14 15 -13 16 10 16 19 0 26 5 26 20 0 15 7 20 24 20 14 0 28 5 31 10 3 6 13
10 21 10 8 0 14 -4 14 -10z m-3059 -120 c5 0 9 -6 9 -13 0 -8 9 -22 20 -32 11
-10 20 -24 20 -32 0 -7 4 -13 9 -13 5 0 13 -10 16 -22 4 -13 31 -45 60 -73 88
-82 92 -85 152 -92 25 -2 52 -11 60 -18 17 -18 17 -25 -2 -25 -8 0 -15 5 -15
10 0 16 -47 12 -54 -5 -9 -23 -26 -18 -26 8 0 19 -8 26 -41 36 -34 10 -43 10
-50 0 -6 -10 -10 -6 -17 12 -6 15 -26 32 -50 43 -29 13 -45 29 -58 58 -10 21
-26 44 -36 49 -10 5 -18 18 -18 29 0 28 -11 51 -21 44 -5 -3 -9 6 -9 20 0 14
4 26 9 26 5 0 12 12 17 28 l8 27 4 -32 c2 -18 7 -33 13 -33z m39 7 c0 -5 -4
-5 -10 -2 -5 3 -10 14 -10 23 0 15 2 15 10 2 5 -8 10 -19 10 -23z m5070 -297
c0 -5 -7 -10 -15 -10 -8 0 -15 5 -15 10 0 6 7 10 15 10 8 0 15 -4 15 -10z
m249 -196 c12 -24 21 -48 21 -54 0 -5 4 -10 9 -10 5 0 18 -22 30 -50 12 -27
26 -50 31 -50 6 0 10 -7 10 -16 0 -16 29 -85 40 -94 8 -6 50 -110 50 -122 0
-5 6 -16 14 -23 8 -8 22 -39 31 -70 10 -30 21 -55 26 -55 4 0 12 -15 18 -33 7
-19 19 -42 29 -53 9 -11 24 -28 32 -38 14 -18 14 -18 -6 -6 -12 7 -30 29 -40
48 -10 20 -24 40 -29 46 -12 13 -39 70 -50 106 -4 13 -13 29 -20 36 -6 7 -20
37 -29 68 -10 31 -21 56 -26 56 -4 0 -15 21 -25 48 -10 26 -21 49 -25 52 -4 3
-18 30 -31 60 -12 30 -28 58 -35 62 -7 5 -20 33 -29 63 -10 30 -21 55 -25 55
-4 0 -10 7 -13 14 -4 10 -1 13 8 10 7 -3 23 -25 34 -50z m-1069 26 c0 -5 -4
-10 -10 -10 -5 0 -10 -9 -10 -20 0 -11 -4 -20 -10 -20 -14 0 -12 28 3 45 14
17 27 19 27 5z m910 -20 c0 -11 -2 -20 -4 -20 -2 0 -6 9 -9 20 -3 11 -1 20 4
20 5 0 9 -9 9 -20z m111 -70 c5 0 9 -5 9 -11 0 -8 -5 -8 -15 1 -8 7 -14 20
-14 29 1 13 2 13 6 -1 2 -10 9 -18 14 -18z m-1016 -10 c-3 -5 -12 -10 -18 -10
-7 0 -6 4 3 10 19 12 23 12 15 0z m-1539 -52 c19 -18 34 -38 34 -44 0 -17 58
-45 63 -31 2 6 12 2 24 -10 12 -12 33 -29 47 -38 14 -10 26 -23 26 -30 0 -8
11 -23 25 -34 19 -14 28 -34 34 -73 5 -29 8 -54 6 -56 -7 -7 -55 23 -55 35 0
7 -4 13 -10 13 -5 0 -10 7 -10 15 0 8 -7 15 -15 15 -8 0 -15 8 -15 18 -1 21
-23 52 -38 52 -6 0 -13 8 -16 18 -4 11 -18 25 -31 32 -14 7 -25 16 -25 19 0
16 -50 59 -87 75 -36 16 -41 21 -32 37 14 27 36 23 75 -13z m1489 0 c7 -30 8
-31 21 -13 18 24 23 18 28 -34 4 -38 2 -42 -15 -38 -10 3 -17 2 -14 -2 6 -11
-26 -72 -52 -98 -16 -16 -24 -19 -29 -11 -4 7 -2 14 4 16 7 2 12 9 12 16 0 7
11 22 25 32 21 15 24 24 19 54 -3 19 -7 44 -8 54 -1 11 -8 22 -14 24 -17 5
-15 32 2 32 8 0 18 -14 21 -32z m1052 18 c4 -8 17 -16 28 -19 13 -3 8 -5 -15
-7 -19 -1 -29 -4 -22 -7 19 -8 14 -22 -7 -16 -19 5 -35 39 -25 55 8 13 32 9
41 -6z m50 -96 c2 -29 -2 -40 -13 -40 -17 0 -19 26 -1 33 7 3 5 6 -5 6 -22 1
-24 21 -3 21 8 0 15 5 15 10 0 6 1 10 3 10 1 0 3 -18 4 -40z m-1046 -93 c-8
-8 -11 -4 -11 14 0 33 14 47 18 19 2 -12 -1 -27 -7 -33z m-4516 13 c0 -7 -6
-15 -12 -17 -8 -3 -13 4 -13 17 0 13 5 20 13 18 6 -3 12 -11 12 -18z m-175
-75 c-7 -31 -20 -55 -40 -72 -17 -14 -30 -31 -30 -38 0 -7 -6 -15 -13 -18 -13
-5 -34 -81 -36 -132 -1 -16 -6 -31 -11 -33 -6 -2 -10 -38 -10 -80 0 -48 -4
-72 -9 -63 -5 7 -13 11 -18 8 -5 -3 -8 36 -7 94 2 92 1 98 -15 89 -10 -5 -21
-7 -23 -4 -7 7 13 104 22 104 4 0 11 10 14 23 3 12 22 40 41 62 19 22 35 43
35 47 0 5 9 8 21 8 11 0 34 14 51 30 17 17 32 29 35 27 2 -2 -1 -26 -7 -52z
m132 33 c-7 -7 -12 -8 -12 -2 0 14 12 26 19 19 2 -3 -1 -11 -7 -17z m-82 -18
c0 -5 -4 -10 -10 -10 -5 0 -10 -9 -10 -20 0 -11 -4 -20 -10 -20 -13 0 -13 3 2
35 11 25 28 34 28 15z m36 -37 c-13 -14 -25 9 -13 28 12 20 12 20 15 -1 2 -12
1 -24 -2 -27z m2856 -47 c21 -44 21 -46 9 -46 -5 0 -12 9 -16 19 -3 11 -19 34
-35 53 -16 18 -30 41 -30 50 0 26 51 -27 72 -76z m1628 71 c0 -2 -16 -21 -35
-43 -19 -21 -35 -33 -35 -26 0 6 4 12 9 12 5 0 14 14 21 30 7 17 19 30 26 30
8 0 14 -1 14 -3z m-1773 -33 c-3 -3 -12 -4 -19 -1 -8 3 -5 6 6 6 11 1 17 -2
13 -5z m-1317 -52 c0 -22 -22 -72 -32 -72 -5 0 -8 -8 -8 -17 0 -30 -17 -50
-31 -36 -9 9 -8 23 6 60 25 67 65 107 65 65z m1950 -39 c0 -21 -3 -24 -9 -14
-5 8 -7 20 -4 28 8 21 13 15 13 -14z m1030 -8 c-13 -14 -29 -25 -36 -25 -7 0
-15 -9 -19 -19 -3 -11 -19 -24 -36 -30 -36 -13 -37 8 -1 24 12 5 22 13 22 17
0 4 18 17 40 29 22 13 40 27 40 33 0 5 3 6 7 3 3 -4 -4 -18 -17 -32z m1435 12
c6 -5 3 -7 -6 -4 -9 3 -22 0 -28 -6 -15 -15 -14 1 2 17 6 8 14 11 17 8 3 -4
10 -11 15 -15z m-3024 -97 c5 0 9 5 9 12 0 6 2 9 5 6 10 -10 -7 -38 -24 -38
-17 0 -44 34 -34 43 3 4 12 0 20 -8 8 -8 19 -15 24 -15z m-1353 -50 c-13 -31
-34 -45 -43 -30 -3 5 6 21 20 36 14 15 25 32 26 38 0 6 3 6 6 -2 2 -6 -1 -25
-9 -42z m-120 6 c-10 -7 -18 -20 -18 -28 0 -8 -7 -29 -15 -45 -10 -20 -17 -71
-20 -142 -4 -101 -3 -112 15 -121 13 -7 20 -6 22 2 2 6 9 9 15 5 15 -10 34
-67 22 -67 -5 0 -9 7 -9 15 0 8 -9 15 -19 15 -17 0 -19 -6 -13 -62 3 -35 11
-68 18 -76 13 -12 37 -83 30 -89 -7 -7 -66 29 -66 41 0 7 -8 21 -17 32 -23 25
-53 74 -60 97 -3 9 -9 17 -13 17 -15 0 -38 87 -37 141 l1 56 26 -14 c35 -18
40 -17 40 11 0 13 6 26 13 29 9 3 8 11 -5 33 -14 25 -14 32 -2 48 8 11 14 28
14 38 0 10 4 18 9 18 5 0 11 14 15 30 5 26 10 30 38 30 30 -1 31 -2 16 -14z
m1590 -36 c8 -17 12 -36 9 -42 -2 -7 -8 -1 -12 15 -4 15 -13 27 -21 27 -19 0
-18 -19 1 -26 8 -4 15 -12 15 -20 0 -8 4 -14 8 -14 5 0 14 -11 22 -24 7 -13
21 -27 32 -29 17 -5 18 -2 13 26 -7 31 -6 31 9 12 8 -11 16 -25 16 -31 0 -7 7
-14 15 -18 8 -3 15 -14 15 -24 0 -10 9 -28 20 -40 12 -12 16 -22 10 -22 -5 0
-10 -11 -10 -25 0 -14 4 -25 8 -25 18 0 28 -90 22 -195 -4 -60 -7 -89 -8 -62
-1 26 -6 47 -12 47 -5 0 -12 17 -15 38 -11 70 -14 78 -40 108 -14 16 -25 34
-25 39 0 6 -16 27 -35 49 -27 30 -33 44 -28 66 3 19 -1 34 -13 47 -38 39 -68
123 -45 123 6 0 11 9 11 20 0 28 23 16 38 -20z m1557 24 c-9 -9 -18 -14 -21
-11 -9 9 6 27 22 27 13 0 13 -2 -1 -16z m-2365 -69 c12 -24 27 -46 33 -48 7
-2 8 -8 3 -13 -5 -5 -11 -4 -13 4 -3 6 -11 12 -20 12 -23 0 -41 24 -48 64 -6
30 -5 35 8 30 9 -3 26 -25 37 -49z m-732 11 c-7 -8 -15 -12 -17 -11 -5 6 10
25 20 25 5 0 4 -6 -3 -14z m1589 -22 c-3 -3 -12 -4 -19 -1 -8 3 -5 6 6 6 11 1
17 -2 13 -5z m-3256 -111 c-6 -42 -7 -72 -1 -84 6 -10 10 -33 10 -53 0 -45 9
-66 27 -66 13 0 15 9 9 55 -3 30 -4 55 -2 55 15 0 37 -74 35 -116 -2 -31 1
-49 9 -52 17 -5 15 -39 -3 -46 -9 -3 -15 -18 -15 -36 0 -18 6 -33 15 -36 21
-8 19 -30 -5 -54 -11 -11 -22 -20 -24 -20 -2 0 -7 30 -11 66 -5 49 -4 69 6 74
14 9 1 25 -36 46 -15 8 -22 28 -28 80 -10 79 -3 266 9 286 14 21 17 -25 5 -99z
m696 1 c0 -30 5 -60 12 -67 14 -14 15 -74 1 -82 -6 -4 -8 -9 -6 -13 2 -4 7
-41 11 -82 4 -41 11 -77 15 -80 4 -3 10 -27 14 -55 4 -27 10 -60 12 -71 4 -17
0 -22 -20 -26 -18 -4 -30 0 -37 11 -8 13 -9 11 -7 -9 2 -14 9 -26 16 -26 6 -1
20 -2 31 -3 13 -1 17 -7 14 -24 -3 -14 2 -29 11 -36 9 -8 16 -22 16 -31 0 -10
3 -20 8 -22 13 -6 42 -65 42 -87 0 -11 9 -25 20 -31 11 -6 20 -18 20 -28 1
-23 27 -53 73 -81 39 -24 49 -57 22 -67 -9 -4 -20 -15 -26 -25 -8 -16 -4 -21
26 -33 19 -8 35 -19 35 -24 0 -10 27 -22 75 -31 20 -4 31 -13 32 -26 l3 -20
-9 20 c-5 11 -10 14 -10 8 -1 -14 -51 -18 -51 -4 0 5 -13 11 -30 14 -16 4 -44
20 -61 37 -18 16 -38 30 -45 30 -8 0 -14 4 -14 10 0 5 -6 7 -14 4 -8 -3 -28
10 -47 30 -18 20 -38 36 -44 36 -7 0 -18 14 -25 30 -7 17 -25 45 -41 63 -16
17 -29 37 -29 44 0 7 -8 17 -19 22 -24 13 -35 50 -40 123 0 15 -8 33 -16 42
-17 17 -21 116 -5 116 6 0 10 24 10 53 0 28 5 90 10 137 6 47 15 130 21 185
10 88 21 117 45 125 1 0 1 -25 1 -56z m803 6 c0 -11 -4 -20 -10 -20 -5 0 -10
9 -10 20 0 11 5 20 10 20 6 0 10 -9 10 -20z m960 -2 c0 6 5 12 10 12 6 0 10
-5 10 -11 0 -6 11 -20 25 -31 14 -11 25 -26 25 -34 0 -8 4 -14 9 -14 8 0 53
-121 47 -127 -5 -5 -56 22 -56 30 0 4 -11 19 -24 32 -13 13 -33 44 -45 69 -12
24 -27 46 -34 49 -8 2 -7 8 3 19 11 11 17 13 22 4 6 -8 8 -8 8 2z m-3440 -113
c0 -8 -2 -15 -4 -15 -2 0 -6 7 -10 15 -3 8 -1 15 4 15 6 0 10 -7 10 -15z m160
-96 c0 -5 -4 -9 -10 -9 -5 0 -10 7 -10 16 0 8 5 12 10 9 6 -3 10 -10 10 -16z
m2447 -241 c-3 -7 -5 -2 -5 12 0 14 2 19 5 13 2 -7 2 -19 0 -25z m2183 17 c0
-8 -4 -15 -10 -15 -5 0 -10 7 -10 15 0 8 5 15 10 15 6 0 10 -7 10 -15z m935
-26 c7 -11 -22 -49 -37 -49 -13 0 -9 48 5 53 19 8 25 8 32 -4z m-1358 -21 c-3
-8 -6 -5 -6 6 -1 11 2 17 5 13 3 -3 4 -12 1 -19z m-3284 -55 c7 -35 -19 -28
-32 8 -14 41 -14 41 8 27 11 -6 21 -22 24 -35z m4648 -26 c-8 -8 -11 -4 -11
14 0 33 14 47 18 19 2 -12 -1 -27 -7 -33z m-2511 35 c0 -5 17 -17 38 -28 20
-10 45 -27 55 -36 10 -10 29 -18 43 -18 21 0 24 -4 19 -20 -3 -11 -2 -20 4
-20 5 0 12 8 14 18 4 13 5 11 6 -5 1 -19 -4 -23 -27 -23 -16 0 -39 9 -52 20
-13 11 -28 20 -35 20 -18 0 -85 66 -85 84 0 9 5 16 10 16 6 0 10 -4 10 -8z
m2270 -7 c0 -8 -4 -15 -10 -15 -5 0 -7 7 -4 15 4 8 8 15 10 15 2 0 4 -7 4 -15z
m-5167 -39 c-10 -13 -27 -30 -38 -37 -19 -11 -19 -11 -5 7 15 18 52 53 58 54
2 0 -5 -11 -15 -24z m1770 -101 c5 -28 4 -34 -3 -20 -8 19 -14 73 -6 64 2 -2
6 -22 9 -44z m397 36 c0 -12 74 -22 223 -29 97 -5 132 -11 140 -22 7 -8 24
-21 39 -29 15 -8 36 -22 46 -32 22 -19 96 -59 111 -59 6 0 20 -8 31 -17 21
-19 99 -42 143 -43 15 0 27 -4 27 -9 0 -5 13 -12 30 -16 27 -6 29 -9 23 -38
-3 -18 -9 -34 -13 -37 -4 -3 -15 -22 -23 -42 -14 -33 -169 -198 -187 -198 -4
0 -20 -11 -36 -25 -16 -14 -34 -25 -41 -25 -6 0 -18 -9 -26 -20 -17 -24 -58
-40 -103 -40 -20 0 -42 -7 -51 -16 -14 -14 -14 -16 3 -29 11 -8 28 -17 39 -21
11 -4 24 -12 28 -18 6 -8 10 -7 14 3 5 11 7 11 14 0 11 -19 261 -19 267 -1 5
15 32 16 32 0 0 -16 -30 -48 -45 -48 -7 0 -15 -7 -19 -15 -3 -8 -21 -23 -41
-32 -19 -9 -35 -20 -35 -25 0 -4 -8 -8 -18 -8 -10 0 -27 -7 -38 -15 -10 -8
-27 -15 -36 -15 -9 0 -24 -7 -32 -16 -9 -8 -46 -21 -83 -28 -56 -10 -68 -16
-68 -32 0 -33 64 -46 190 -40 136 6 187 14 200 30 6 7 29 16 52 19 45 8 109
34 131 54 17 16 94 27 139 18 21 -4 55 -7 75 -8 36 -1 37 -2 24 -22 -7 -11
-26 -22 -42 -25 -21 -4 -30 -13 -38 -38 -5 -17 -15 -32 -22 -32 -7 0 -11 -6
-8 -13 3 -8 -2 -20 -11 -27 -20 -16 -19 -22 5 -50 21 -24 23 -23 70 20 41 37
69 58 87 64 18 6 19 3 11 -46 -4 -29 -11 -74 -14 -100 -4 -27 -10 -48 -15 -48
-5 0 -9 -13 -9 -30 0 -16 4 -30 9 -30 5 0 12 -35 15 -77 7 -87 34 -213 45
-213 5 0 13 -18 20 -41 l12 -41 52 6 c29 3 80 8 115 12 34 3 62 9 62 14 0 4
42 13 93 20 95 13 103 14 275 26 56 4 102 10 102 15 0 4 26 10 58 14 70 8 94
19 114 53 9 15 28 41 42 57 14 17 26 38 26 47 0 9 6 21 14 25 16 10 56 86 56
108 0 8 5 15 10 15 6 0 10 5 10 12 0 12 40 100 49 108 11 9 51 100 51 115 0 8
4 15 9 15 5 0 17 23 26 51 10 28 23 53 31 56 8 3 14 11 14 19 0 7 9 28 20 46
12 20 20 27 20 16 0 -9 4 -18 8 -20 11 -4 52 -86 52 -103 0 -8 6 -15 13 -15
24 -1 97 -83 97 -110 0 -5 4 -10 10 -10 5 0 16 -13 25 -29 12 -24 13 -40 5
-81 -5 -29 -8 -56 -5 -61 8 -12 -17 -369 -25 -369 -4 0 -11 -19 -14 -42 -4
-24 -11 -61 -15 -83 -8 -44 5 -85 26 -85 7 0 13 4 13 8 0 4 15 12 32 17 24 8
34 18 40 40 20 87 28 110 37 113 6 2 11 8 11 13 0 6 9 29 20 51 11 23 20 50
20 60 0 10 4 18 10 18 5 0 12 12 16 28 9 45 36 100 50 106 7 3 22 -6 33 -19
10 -14 24 -25 30 -25 15 0 14 -17 -1 -27 -14 -9 -31 -34 -50 -73 -7 -14 -16
-27 -19 -30 -4 -3 -16 -32 -28 -64 -11 -33 -25 -62 -29 -65 -12 -8 -21 -61
-15 -78 7 -18 40 -16 47 3 3 9 6 26 6 38 0 13 8 32 18 44 10 11 24 44 32 72 8
29 20 54 27 57 7 3 13 11 13 19 0 7 14 21 31 29 28 15 34 15 65 0 18 -9 38
-24 43 -33 5 -9 30 -23 55 -31 25 -7 46 -17 46 -21 0 -5 28 -17 63 -27 l62
-19 1 -49 c2 -85 -8 -175 -20 -188 -7 -7 -18 -28 -26 -47 -17 -43 -133 -161
-177 -181 -18 -7 -33 -17 -33 -21 0 -5 -5 -8 -10 -8 -6 0 -30 -9 -52 -20 -23
-11 -48 -20 -55 -20 -7 0 -13 -4 -13 -9 0 -5 -14 -14 -30 -21 -17 -7 -36 -20
-43 -29 -31 -42 -70 -55 -162 -57 -49 0 -100 3 -113 8 -22 7 -58 -5 -73 -25
-3 -5 -44 -10 -90 -12 -46 -2 -106 -9 -134 -15 -27 -5 -66 -13 -85 -17 -19 -3
-38 -10 -41 -15 -3 -5 -17 -11 -30 -13 -34 -5 -91 -28 -107 -42 -7 -7 -17 -13
-22 -13 -5 0 -19 -18 -31 -40 -13 -22 -26 -40 -31 -40 -4 0 -8 -5 -8 -10 0
-14 -41 -73 -58 -84 -8 -4 -20 -23 -28 -42 -8 -19 -19 -34 -24 -34 -6 0 -10
-8 -10 -17 0 -25 -31 -103 -41 -103 -5 0 -19 -21 -31 -47 -12 -27 -27 -51 -34
-56 -7 -4 -20 -29 -29 -56 -9 -27 -23 -52 -31 -55 -8 -3 -22 -22 -30 -42 -20
-48 -137 -162 -211 -207 -18 -10 -33 -23 -33 -27 0 -4 -8 -11 -17 -14 -27 -10
-56 -28 -83 -53 -22 -21 -29 -24 -62 -27 -7 -1 -28 -18 -47 -38 -18 -21 -39
-38 -46 -38 -7 0 -16 -7 -19 -16 -3 -8 -11 -12 -17 -8 -12 7 -109 -34 -109
-46 0 -4 -25 -15 -55 -25 -30 -9 -55 -21 -55 -25 0 -11 -70 -31 -82 -24 -4 3
-15 -2 -24 -10 -8 -9 -24 -16 -35 -16 -10 0 -19 -4 -19 -10 0 -17 -109 -12
-127 5 -10 11 -25 14 -46 10 -18 -4 -59 1 -92 11 -33 9 -72 19 -87 21 -16 3
-28 9 -28 14 0 5 -8 9 -17 9 -19 0 -105 30 -113 40 -3 3 -29 16 -57 29 -29 14
-53 28 -53 32 0 4 -8 10 -17 13 -10 4 -38 24 -63 46 -25 22 -50 40 -57 40 -7
0 -17 9 -23 20 -6 11 -16 20 -23 20 -7 0 -24 10 -37 23 -14 12 -41 30 -60 41
-19 10 -39 24 -45 30 -5 6 -23 19 -38 29 -15 10 -32 29 -37 42 -5 13 -18 26
-29 30 -12 3 -21 10 -21 15 0 5 -8 11 -17 14 -10 4 -34 20 -53 37 -19 17 -47
38 -62 47 -15 9 -28 19 -28 23 0 4 -17 18 -37 30 -21 13 -42 29 -46 36 -4 7
-15 13 -23 13 -8 0 -20 11 -26 25 -6 14 -16 25 -22 25 -6 0 -57 48 -113 108
-56 59 -122 126 -145 149 -24 23 -50 49 -58 58 -8 8 -28 29 -44 45 -31 31 -30
58 4 67 37 10 23 38 -30 58 -27 11 -50 22 -50 25 0 3 -18 16 -40 30 -22 14
-40 28 -40 32 0 4 -11 17 -23 30 -13 13 -30 39 -38 58 -7 19 -21 42 -31 50
-19 17 -38 131 -38 231 0 33 -4 59 -10 59 -5 0 -10 11 -10 25 0 14 6 25 13 25
8 0 9 3 1 8 -6 4 -14 21 -16 37 -13 75 -43 190 -50 193 -4 2 -8 14 -8 26 0 25
-29 118 -40 126 -3 3 -17 31 -29 63 -13 31 -27 57 -32 57 -5 0 -9 8 -9 18 0
24 40 42 90 42 22 0 40 5 40 10 0 15 78 12 82 -2 3 -9 10 -8 23 5 18 18 19 16
38 -60 11 -43 23 -80 27 -83 4 -3 15 -31 25 -63 10 -32 26 -62 37 -68 10 -5
18 -18 18 -28 0 -16 10 -18 88 -18 48 0 128 -2 177 -6 50 -3 207 -9 350 -12
143 -4 262 -11 265 -15 4 -7 79 -14 116 -11 7 1 15 21 18 46 4 25 11 45 15 45
21 0 55 330 40 383 -5 17 -9 33 -9 34 0 1 12 -5 28 -13 15 -7 31 -14 35 -14 5
0 15 -7 23 -15 9 -8 24 -15 35 -15 31 0 23 38 -16 76 -19 18 -35 42 -35 52 0
10 -16 32 -35 49 -47 42 -38 59 31 68 36 4 63 14 77 28 14 14 17 22 9 25 -7 2
-19 10 -27 19 -12 11 -54 15 -197 18 -101 3 -255 10 -343 16 -88 6 -290 12
-449 13 -212 2 -291 6 -294 14 -2 7 -17 12 -33 12 -16 0 -38 6 -49 12 -16 10
-24 10 -40 1 -12 -8 -21 -9 -25 -3 -3 6 -15 10 -27 10 -18 0 -19 -4 -13 -52 4
-35 13 -58 26 -67 10 -7 19 -22 19 -32 0 -10 4 -20 9 -23 5 -3 12 -21 15 -40
4 -19 11 -36 16 -38 5 -2 14 -23 20 -48 25 -117 35 -150 42 -150 4 0 8 -4 8
-10 0 -18 -18 -11 -25 9 -3 12 -17 21 -33 23 -17 2 -31 12 -39 29 -7 15 -24
34 -38 43 -14 9 -25 23 -25 31 0 7 -6 20 -12 27 -7 7 -21 30 -31 49 -24 47
-25 193 -2 258 8 24 15 52 15 62 0 11 4 19 9 19 5 0 12 13 16 30 4 16 20 39
36 51 16 11 29 29 29 40 0 20 34 27 45 9 3 -5 17 -10 30 -10 13 0 25 -4 27
-10 2 -5 33 -12 70 -16 58 -6 69 -4 74 10 8 21 -19 77 -45 94 -12 7 -21 21
-21 32 0 22 -19 61 -35 72 -14 10 -9 76 8 93 10 10 35 15 70 15 l55 0 23 -47
c13 -27 28 -52 34 -58 7 -5 18 -25 25 -43 14 -35 37 -66 81 -111 15 -14 30
-36 34 -49 4 -13 18 -28 31 -34 13 -6 26 -19 29 -30 4 -10 13 -18 20 -18 8 0
20 -9 28 -20 15 -22 111 -60 151 -60 13 0 26 -4 28 -10 7 -21 340 -51 352 -32
4 6 29 14 56 18 28 4 50 10 50 14 0 4 22 10 49 13 28 3 63 13 80 21 16 9 41
16 56 16 14 0 25 5 25 10 0 6 7 10 15 10 9 0 33 9 55 20 22 11 48 20 60 20 11
0 20 5 20 10 0 6 8 10 18 10 30 1 66 35 59 59 -4 15 1 24 16 33 12 6 24 14 27
19 3 4 29 17 58 28 58 23 65 28 123 84 38 37 39 38 20 58 -13 15 -25 18 -45
13 -14 -3 -26 -9 -26 -13 0 -13 -125 -36 -190 -35 -76 1 -173 19 -178 33 -2 5
-24 31 -50 58 -51 53 -82 103 -82 132 0 11 -4 21 -9 23 -4 2 -11 24 -15 51 -7
43 -6 47 13 47 12 0 21 -4 21 -9z m3180 -73 c-16 -73 -34 -117 -46 -122 -22
-8 -17 27 6 47 13 11 20 29 20 51 0 41 9 68 20 61 4 -3 5 -20 0 -37z m-5290
-55 c0 -7 -8 -20 -19 -30 -22 -21 -51 -76 -51 -97 0 -8 -4 -16 -10 -18 -15 -5
-15 -221 0 -226 10 -4 10 -6 0 -12 -7 -4 -13 -19 -13 -34 -1 -14 -5 -26 -8
-26 -8 0 -19 38 -19 68 0 12 -4 22 -10 22 -6 0 -10 28 -10 65 0 45 4 65 13 65
8 0 7 4 -3 10 -11 7 -12 12 -4 18 6 4 15 30 19 59 6 43 4 53 -12 62 -10 6 -13
11 -6 11 6 0 13 10 15 23 2 12 9 23 16 23 6 1 17 2 22 3 6 0 10 9 10 19 0 10
3 21 6 24 9 9 64 -15 64 -29z m983 -4 c7 0 1 -5 -12 -10 -31 -12 -34 -8 -19
27 11 27 12 28 15 7 3 -13 10 -23 16 -24z m116 -29 c5 0 11 -9 14 -19 3 -13 0
-18 -7 -15 -13 5 -37 62 -35 85 0 8 5 -1 10 -18 5 -18 13 -33 18 -33z m673 13
c13 -26 31 -55 41 -65 9 -10 17 -26 16 -35 0 -15 -2 -14 -9 3 -4 12 -15 24
-24 27 -8 3 -22 22 -30 42 -8 19 -20 35 -25 35 -6 0 -11 9 -11 20 0 34 17 22
42 -27z m2378 18 c0 -11 5 -23 10 -26 6 -3 10 -14 10 -24 0 -9 9 -27 21 -39
11 -13 29 -43 40 -67 11 -25 24 -45 29 -45 6 0 10 -5 10 -11 0 -7 -10 -9 -25
-5 -14 4 -78 7 -142 7 -64 0 -120 2 -124 4 -12 8 15 54 39 64 12 6 22 17 22
25 0 8 11 23 25 34 14 11 25 25 25 31 0 6 6 11 14 11 7 0 16 14 20 30 6 33 26
41 26 11z m315 -118 c11 -18 23 -33 26 -33 9 0 41 -62 35 -67 -7 -8 -46 36
-46 52 0 8 -9 20 -20 27 -11 7 -20 16 -20 20 0 5 -9 17 -20 28 -11 11 -20 27
-20 35 0 19 40 -19 65 -62z m735 62 c0 -8 -7 -15 -15 -15 -9 0 -12 6 -9 15 4
8 10 15 15 15 5 0 9 -7 9 -15z m-4625 -33 c-3 -3 -11 0 -18 7 -9 10 -8 11 6 5
10 -3 15 -9 12 -12z m-822 1 c-7 -2 -13 -14 -14 -26 0 -12 -3 -16 -6 -9 -7 18
4 42 19 41 10 0 10 -2 1 -6z m-26 -150 c-2 -21 -4 -6 -4 32 0 39 2 55 4 38 2
-18 2 -50 0 -70z m1433 78 c0 -5 3 -18 7 -28 6 -17 6 -17 -10 -1 -19 18 -22
38 -7 38 6 0 10 -4 10 -9z m56 -95 c13 -9 24 -22 23 -29 0 -9 -2 -9 -6 1 -2 6
-9 12 -15 12 -15 0 -38 32 -37 50 1 11 2 11 6 -2 2 -9 15 -24 29 -32z m-1279
-33 c-3 -10 -5 -4 -5 12 0 17 2 24 5 18 2 -7 2 -21 0 -30z m3286 -30 c-10 -15
-28 -38 -40 -51 -12 -13 -25 -33 -28 -43 -4 -11 -11 -19 -16 -19 -14 0 -11 9
9 31 11 10 25 31 33 46 8 15 22 35 32 45 9 10 18 28 18 41 l2 22 4 -22 c2 -12
-4 -34 -14 -50z m621 51 c20 -8 21 -50 1 -58 -8 -3 -15 -12 -15 -19 0 -8 -7
-20 -15 -27 -17 -14 -20 -50 -4 -50 6 0 16 14 22 30 6 17 15 30 19 30 4 0 15
14 24 31 12 24 20 30 36 25 26 -6 108 14 126 31 20 20 262 17 262 -3 0 -8 4
-14 9 -14 5 0 20 -17 32 -37 13 -21 43 -56 66 -80 24 -23 43 -46 43 -50 0 -5
14 -17 30 -26 17 -10 30 -24 30 -32 0 -7 10 -22 23 -32 12 -10 27 -37 33 -60
10 -37 9 -43 -5 -43 -9 0 -25 -7 -35 -15 -12 -9 -42 -15 -78 -15 -61 0 -79 16
-29 26 18 4 31 14 35 27 9 34 -8 41 -71 29 -32 -6 -118 -13 -192 -16 -95 -3
-137 -9 -143 -18 -8 -10 -11 -10 -15 0 -6 14 -93 17 -93 2 0 -14 -37 -12 -43
3 -4 9 -7 9 -14 -1 -6 -8 -42 -14 -99 -17 -190 -8 -374 -31 -374 -46 0 -14
-38 -11 -42 3 -3 9 -9 8 -22 -5 -10 -9 -28 -17 -42 -17 -33 0 -43 29 -17 49
12 9 35 27 52 40 17 13 31 29 31 37 0 8 6 14 14 14 7 0 22 12 32 28 19 29 36
44 74 64 24 13 57 45 85 83 14 20 14 20 15 -3 0 -25 -24 -78 -46 -100 -8 -7
-14 -19 -14 -26 0 -6 -9 -18 -19 -25 -16 -12 -17 -16 -6 -28 21 -20 44 -16 70
15 13 15 25 30 25 34 0 6 19 30 68 85 12 14 22 32 22 40 0 7 11 18 24 24 13 6
28 19 32 29 13 25 66 90 75 90 4 0 14 -3 23 -6z m926 -201 c0 -19 -18 -16 -30
6 -17 33 -12 46 10 26 11 -10 20 -24 20 -32z m-5036 -6 c4 -19 3 -26 -4 -22
-5 3 -10 18 -10 32 0 32 5 28 14 -10z m3329 -42 c-3 -9 -8 -14 -10 -11 -3 3
-2 9 2 15 9 16 15 13 8 -4z m-3013 -70 c0 -8 -4 -15 -10 -15 -5 0 -10 7 -10
15 0 8 5 15 10 15 6 0 10 -7 10 -15z m23 -52 c3 -16 8 -38 12 -50 4 -13 3 -23
-3 -23 -5 0 -12 12 -16 28 -3 15 -8 37 -12 50 -4 12 -2 22 4 22 5 0 12 -12 15
-27z m1240 -89 c30 -6 37 -11 37 -30 0 -13 -7 -27 -15 -31 -31 -18 -40 -225
-20 -470 5 -57 12 -93 19 -93 6 0 4 -4 -4 -9 -29 -16 -125 -21 -185 -8 l-60
12 -19 60 c-11 33 -22 62 -26 65 -4 3 -12 23 -17 45 -13 46 -36 108 -43 115
-3 3 -16 39 -29 80 -13 41 -27 77 -30 80 -10 7 -32 131 -25 141 3 5 14 9 25 9
10 0 19 4 19 9 0 7 113 18 310 29 14 1 42 -1 63 -4z m-1463 -19 c0 -8 -2 -15
-4 -15 -2 0 -6 7 -10 15 -3 8 -1 15 4 15 6 0 10 -7 10 -15z m270 -11 c14 -37
12 -40 -10 -16 -22 23 -26 42 -10 42 6 0 15 -12 20 -26z m4200 7 c3 -4 24 -13
48 -19 29 -9 42 -18 42 -31 0 -26 -31 -111 -40 -111 -5 0 -16 -34 -26 -76 -10
-43 -23 -82 -30 -88 -6 -7 -17 -30 -25 -51 -7 -22 -24 -50 -36 -62 -13 -12
-23 -29 -23 -37 0 -29 -23 -66 -41 -66 -24 0 -34 39 -24 98 10 60 6 314 -6
354 -4 17 -18 37 -29 45 -11 8 -20 25 -20 40 l0 25 103 -7 c56 -4 104 -10 107
-14z m-295 -75 c56 -55 43 -122 -28 -145 -60 -20 -137 32 -137 94 0 8 -5 15
-11 15 -6 0 -3 7 5 16 9 8 21 24 26 35 8 15 22 19 60 19 43 0 54 -5 85 -34z
m-2385 16 c0 -5 11 -15 25 -22 23 -12 25 -19 25 -87 0 -70 -2 -76 -32 -107
-40 -40 -85 -52 -132 -35 -41 15 -56 43 -56 109 0 58 14 100 34 100 7 0 19 7
26 15 7 8 21 15 31 15 11 0 19 5 19 10 0 6 14 10 30 10 17 0 30 -4 30 -8z
m280 -40 c52 -24 77 -55 85 -108 6 -40 4 -50 -12 -62 -19 -14 -74 -10 -117 9
-41 19 -78 131 -54 168 14 22 36 21 98 -7z m1550 -7 c0 -35 -25 -155 -32 -155
-4 0 -8 -70 -8 -155 0 -85 3 -155 8 -155 6 0 32 -111 32 -139 0 -13 -67 -32
-86 -24 -22 8 -44 98 -51 206 -3 53 -10 97 -15 97 -4 0 -8 25 -8 55 0 30 4 55
9 55 5 0 11 24 15 53 14 106 44 160 96 170 14 2 28 5 33 6 4 0 7 -6 7 -14z
m285 -91 c7 -48 5 -53 -26 -87 -49 -52 -83 -63 -120 -36 -16 11 -29 28 -29 37
0 28 20 92 29 92 5 0 11 9 14 19 3 12 20 24 46 32 22 7 41 16 41 21 0 5 9 1
19 -9 12 -11 22 -39 26 -69z m-3612 41 c15 -13 27 -30 27 -38 0 -8 26 -41 58
-73 66 -68 96 -111 83 -119 -15 -8 -40 5 -46 26 -3 10 -17 27 -31 38 -13 10
-24 22 -24 25 0 3 -7 14 -16 24 -45 50 -74 89 -80 105 -3 9 -10 17 -15 17 -5
0 -9 5 -9 10 0 17 24 10 53 -15z m1587 -12 c-1 -24 -2 -26 -11 -10 -5 9 -7 22
-4 27 10 17 15 11 15 -17z m-1440 -13 c0 -5 -4 -10 -10 -10 -5 0 -10 5 -10 10
0 6 5 10 10 10 6 0 10 -4 10 -10z m5311 -132 c23 -8 27 -13 17 -19 -23 -15
-36 -10 -54 20 -10 16 -28 34 -41 40 -12 6 -23 17 -23 25 0 10 13 2 35 -20 20
-19 49 -40 66 -46z m-30 45 c13 -16 12 -17 -3 -4 -10 7 -18 15 -18 17 0 8 8 3
21 -13z m111 -17 c8 -8 23 -16 34 -19 10 -2 -1 -6 -26 -7 l-45 -2 30 -13 30
-14 -27 -1 c-33 0 -38 7 -31 43 6 30 15 34 35 13z m-72 -6 c0 -5 -4 -10 -10
-10 -5 0 -10 5 -10 10 0 6 5 10 10 10 6 0 10 -4 10 -10z m153 -36 c-3 -8 -12
-13 -20 -10 -8 3 -20 6 -26 7 -7 1 -1 5 13 9 37 12 40 11 33 -6z m-1791 -25
c3 -10 31 -18 122 -36 l28 -6 -7 -106 c-7 -105 -15 -131 -41 -131 -7 0 -17 -6
-21 -14 -6 -10 -40 -15 -128 -19 -179 -8 -339 -25 -343 -37 -2 -5 -12 -10 -23
-10 -14 0 -20 10 -25 40 -4 22 -11 43 -15 46 -5 3 -9 16 -9 29 0 13 -4 25 -9
27 -5 2 -11 21 -14 43 l-4 41 35 -5 c24 -2 39 1 46 11 6 8 40 26 76 39 36 12
67 26 70 29 11 14 102 50 125 50 14 0 25 5 25 10 0 14 107 13 112 -1z m-1998
-36 l38 -5 -5 -42 c-17 -125 -29 -181 -37 -184 -6 -2 -10 -12 -10 -22 0 -10
-7 -21 -17 -24 -20 -8 -133 4 -133 14 0 10 -92 20 -260 28 -74 4 -142 12 -151
17 -12 7 -18 32 -22 87 -5 74 -4 77 13 68 24 -13 73 -13 86 0 5 5 48 15 94 21
47 6 87 15 90 18 3 4 28 14 55 23 49 16 151 16 259 1z m-1615 -223 c12 -60 19
-120 16 -133 -4 -15 -1 -30 8 -39 8 -8 20 -50 27 -94 6 -43 15 -101 20 -129 5
-27 9 -67 9 -89 l1 -38 -30 32 c-16 18 -30 36 -30 40 0 5 -12 19 -27 32 -16
13 -37 42 -48 63 -11 22 -25 45 -30 51 -6 6 -20 47 -30 90 -11 44 -24 82 -30
86 -12 8 -9 129 4 138 4 3 11 22 15 42 8 42 27 57 72 58 l31 0 22 -110z m5161
-532 c0 -5 6 -8 14 -8 7 0 21 -12 31 -26 9 -14 30 -30 46 -36 16 -5 29 -14 29
-19 0 -5 20 -19 45 -31 25 -12 45 -25 45 -30 0 -4 16 -10 35 -14 37 -7 48 -24
16 -24 -11 0 -26 -6 -34 -14 -30 -30 -278 -37 -296 -8 -3 6 -29 17 -56 23 -70
18 -78 26 -72 73 4 31 17 50 61 93 31 30 56 58 56 62 0 4 5 12 11 18 9 9 19 3
40 -20 16 -17 29 -35 29 -39z m-4940 -178 c0 -5 -4 -10 -10 -10 -5 0 -10 5
-10 10 0 6 5 10 10 10 6 0 10 -4 10 -10z m13 -40 c3 -11 1 -18 -4 -14 -5 3 -9
12 -9 20 0 20 7 17 13 -6z m5257 -20 c0 -5 -4 -10 -10 -10 -5 0 -10 5 -10 10
0 6 5 10 10 10 6 0 10 -4 10 -10z m-719 -128 c-7 -2 -18 1 -23 6 -8 8 -4 9 13
5 13 -4 18 -8 10 -11z m-4361 -12 c13 -11 19 -20 13 -20 -5 0 -20 9 -33 20
-13 11 -19 20 -13 20 5 0 20 -9 33 -20z m4487 -36 c-3 -3 -12 -4 -19 -1 -8 3
-5 6 6 6 11 1 17 -2 13 -5z m-110 -36 c-3 -8 -6 -5 -6 6 -1 11 2 17 5 13 3 -3
4 -12 1 -19z m173 -29 c0 -14 -17 -10 -23 5 -4 10 -1 13 9 9 7 -3 14 -9 14
-14z m-250 -79 c0 -5 -4 -10 -10 -10 -5 0 -10 5 -10 10 0 6 5 10 10 10 6 0 10
-4 10 -10z m140 -15 c0 -2 -10 -9 -22 -15 -22 -11 -22 -10 -4 4 21 17 26 19
26 11z m-61 -56 c-24 -15 -29 -10 -11 11 10 12 18 16 21 9 2 -6 -3 -15 -10
-20z m83 -21 c-7 -7 -12 -8 -12 -2 0 14 12 26 19 19 2 -3 -1 -11 -7 -17z m94
-63 c-6 -24 -26 -35 -26 -15 0 6 5 10 10 10 6 0 10 12 11 28 0 15 3 21 6 14 3
-7 2 -24 -1 -37z m-3503 -505 l18 -30 -25 0 c-18 0 -26 -5 -26 -17 -1 -33 -60
-85 -60 -53 0 6 4 10 9 10 5 0 12 10 16 23 9 32 39 97 45 97 3 0 14 -13 23
-30z m3564 -162 c-3 -8 -6 -5 -6 6 -1 11 2 17 5 13 3 -3 4 -12 1 -19z m26 -27
c-6 -3 -13 -19 -18 -36 -4 -16 -10 -24 -12 -17 -7 19 17 73 29 66 6 -4 7 -9 1
-13z m-85 -56 c-2 -11 -7 -12 -18 -4 -11 8 -12 12 -2 16 6 2 13 12 13 21 1 15
2 15 6 0 2 -10 3 -25 1 -33z m-70 1 c-9 -6 -26 -36 -39 -66 -13 -30 -27 -56
-31 -58 -4 -2 -8 -12 -8 -22 0 -9 -7 -23 -15 -30 -8 -7 -15 -18 -15 -24 0 -6
-9 -20 -21 -29 -20 -18 -21 -18 -14 5 4 13 12 25 17 27 5 2 19 24 29 49 11 26
23 49 27 52 12 9 32 49 32 65 0 8 9 20 20 27 11 7 20 20 21 28 0 12 2 12 6 1
3 -8 -1 -19 -9 -25z m-2030 -88 c-11 -24 -24 -45 -27 -48 -4 -3 -18 -31 -30
-62 -13 -32 -27 -58 -32 -58 -4 0 -11 -21 -15 -46 -4 -26 -16 -56 -26 -66 -11
-11 -21 -31 -22 -44 0 -13 -4 -24 -7 -24 -7 0 -15 -51 -26 -150 -3 -30 -11
-58 -17 -62 -8 -6 -8 -10 0 -15 6 -5 14 -46 18 -92 l8 -84 -24 6 c-13 4 -32 7
-44 7 -11 0 -30 9 -42 20 -12 11 -24 20 -27 20 -8 0 -63 40 -95 68 -13 12 -28
22 -33 22 -20 0 -30 69 -32 235 -1 99 -5 192 -9 206 -7 26 -6 26 53 33 34 4
61 11 61 16 0 6 10 10 22 10 25 0 131 41 136 53 2 4 10 7 17 7 24 0 120 33
130 45 10 11 63 42 77 44 3 1 -3 -18 -14 -41z m2135 3 c-13 -12 -16 -12 -24 0
-17 27 -11 38 15 26 20 -10 21 -13 9 -26z m77 -32 c0 -5 -9 -9 -20 -9 -19 0
-26 11 -14 23 8 8 34 -3 34 -14z m-172 -19 c-16 -25 -38 -34 -38 -15 0 8 7 15
15 15 8 0 15 7 15 16 0 8 4 12 10 9 6 -4 5 -13 -2 -25z m59 -12 c-3 -8 -6 -5
-6 6 -1 11 2 17 5 13 3 -3 4 -12 1 -19z m-32 -38 c4 -16 4 -34 1 -39 -4 -5 2
-14 11 -20 10 -6 12 -11 6 -11 -7 0 -13 -7 -13 -15 0 -9 -6 -12 -15 -9 -10 4
-13 13 -10 25 4 12 -1 23 -14 31 -25 15 -27 28 -5 28 8 0 12 5 9 10 -7 11 2
30 15 30 5 0 11 -13 15 -30z m58 15 c-3 -9 -8 -14 -10 -11 -3 3 -2 9 2 15 9
16 15 13 8 -4z m92 -44 c-6 -21 -25 -29 -25 -11 0 6 5 10 10 10 6 0 10 8 10
17 0 9 3 14 6 10 3 -3 3 -15 -1 -26z m-215 9 c0 -5 -18 -19 -40 -30 -22 -11
-40 -25 -40 -30 0 -6 -6 -10 -13 -10 -7 0 -20 -9 -30 -20 -9 -11 -22 -20 -28
-20 -6 0 8 17 30 38 23 21 41 43 41 49 0 6 12 11 27 11 15 0 29 5 31 11 5 14
22 15 22 1z m150 -36 c0 -2 -7 -4 -15 -4 -8 0 -15 4 -15 10 0 5 7 7 15 4 8 -4
15 -8 15 -10z m-30 -24 c0 -5 -4 -10 -10 -10 -5 0 -10 5 -10 10 0 6 5 10 10
10 6 0 10 -4 10 -10z m-84 -26 c-4 -12 -1 -14 14 -9 22 7 23 5 14 -19 -3 -9
-16 -16 -28 -16 -11 0 -34 -7 -49 -15 -15 -8 -45 -17 -65 -20 l-37 -6 28 16
c15 9 27 22 27 30 0 8 6 15 13 15 6 0 23 9 37 20 31 24 54 26 46 4z m-2966
-63 c0 -5 -18 -11 -40 -15 -39 -6 -52 -20 -27 -29 7 -2 8 -8 3 -13 -5 -5 -11
-4 -13 4 -7 17 -30 15 -37 -4 -4 -10 -12 -14 -22 -10 -9 4 -23 1 -30 -5 -9 -7
-14 -8 -14 -1 0 5 14 15 30 21 17 5 30 15 30 20 0 6 8 11 18 11 10 0 27 7 38
15 21 16 64 20 64 6z m4 -66 c-6 -41 -4 -45 15 -45 15 0 19 -4 14 -16 -3 -9
-1 -19 5 -23 7 -4 8 -12 2 -21 -8 -13 -10 -12 -10 3 0 14 -5 16 -27 11 -23 -6
-25 -5 -20 15 3 12 -1 27 -9 35 -18 19 -18 32 1 40 8 3 15 15 15 26 0 11 5 20
11 20 7 0 8 -16 3 -45z m96 21 c0 -14 12 -32 30 -46 33 -25 38 -40 15 -40 -8
0 -24 -9 -35 -20 -11 -11 -26 -20 -32 -19 -10 0 -10 2 0 6 13 5 16 29 5 36 -5
2 -3 3 3 1 6 -1 17 2 24 6 11 7 10 11 -3 25 -10 9 -17 12 -17 6 0 -6 -7 -11
-15 -11 -8 0 -15 7 -15 15 0 8 7 15 15 15 8 0 15 5 15 10 0 6 -4 10 -10 10 -5
0 -10 7 -10 15 0 8 7 15 15 15 9 0 15 -9 15 -24z m50 14 c0 -5 -4 -10 -10 -10
-5 0 -10 5 -10 10 0 6 5 10 10 10 6 0 10 -4 10 -10z m20 -30 c0 -5 -4 -10 -10
-10 -5 0 -10 5 -10 10 0 6 5 10 10 10 6 0 10 -4 10 -10z m2794 -12 c-3 -13 -8
-25 -10 -27 -6 -6 -11 1 -18 27 -6 18 -4 22 14 22 18 0 20 -4 14 -22z m-3160
-13 c-7 -16 -24 -21 -24 -6 0 8 7 13 27 20 1 1 0 -6 -3 -14z m123 -7 c-3 -8
-6 -5 -6 6 -1 11 2 17 5 13 3 -3 4 -12 1 -19z m2947 -3 c3 -9 0 -15 -9 -15 -9
0 -12 6 -9 15 4 8 7 15 9 15 2 0 5 -7 9 -15z m-3044 -15 c0 -5 -2 -10 -4 -10
-3 0 -8 5 -11 10 -3 6 -1 10 4 10 6 0 11 -4 11 -10z m3007 -6 c-3 -3 -12 -4
-19 -1 -8 3 -5 6 6 6 11 1 17 -2 13 -5z m243 -10 c0 -2 -7 -4 -15 -4 -8 0 -15
4 -15 10 0 5 7 7 15 4 8 -4 15 -8 15 -10z m-3356 0 c23 -9 20 -24 -4 -24 -11
0 -20 4 -20 9 0 6 -15 12 -32 14 l-33 4 37 1 c20 1 43 -1 52 -4z m92 -39 c18
-14 17 -15 -11 -9 -46 10 -65 23 -34 24 14 0 34 -7 45 -15z m349 -4 c-3 -6
-14 -11 -23 -11 -13 0 -13 2 4 14 21 15 30 14 19 -3z m45 -11 c0 -5 -4 -10
-10 -10 -5 0 -10 5 -10 10 0 6 5 10 10 10 6 0 10 -4 10 -10z m-343 -6 c-3 -3
-12 -4 -19 -1 -8 3 -5 6 6 6 11 1 17 -2 13 -5z m267 -30 c21 -8 20 -20 0 -28
-22 -9 -50 14 -32 25 16 10 13 10 32 3z m176 -15 c0 -6 -4 -7 -10 -4 -5 3 -10
11 -10 16 0 6 5 7 10 4 6 -3 10 -11 10 -16z m58 -89 c-2 -7 -10 1 -17 16 -12
27 -11 28 4 12 10 -9 16 -21 13 -28z m122 -90 c20 -15 21 -20 8 -20 -9 0 -20
5 -23 10 -3 6 -18 10 -33 11 -24 0 -25 1 -7 9 28 12 27 12 55 -10z m-91 -86
c6 -13 15 -24 21 -24 12 0 24 -11 49 -43 29 -37 -2 -14 -67 49 -44 43 -58 61
-41 53 15 -6 32 -22 38 -35z m164 32 c31 -13 99 -66 85 -66 -12 0 -58 19 -71
30 -6 5 -23 19 -37 30 -30 23 -22 25 23 6z m142 -92 c9 -14 14 -29 10 -32 -4
-4 -11 1 -16 10 -5 9 -16 24 -25 33 -13 13 -13 15 -1 15 8 0 22 -12 32 -26z
m-198 -66 c-3 -8 -6 -5 -6 6 -1 11 2 17 5 13 3 -3 4 -12 1 -19z m224 -16 c-11
-8 -21 -19 -21 -24 0 -5 -16 -25 -35 -44 -42 -40 -47 -32 -7 13 15 17 38 45
52 62 14 18 27 26 29 19 2 -6 -6 -18 -18 -26z m-71 -27 c0 -8 -4 -15 -10 -15
-5 0 -10 7 -10 15 0 8 5 15 10 15 6 0 10 -7 10 -15z m-43 -91 c-9 -9 -27 6
-27 22 0 13 2 13 16 -1 9 -9 14 -18 11 -21z m-160 -2666 c-3 -8 -6 -5 -6 6 -1
11 2 17 5 13 3 -3 4 -12 1 -19z m-17 -63 c0 -8 -4 -15 -10 -15 -5 0 -10 7 -10
15 0 8 5 15 10 15 6 0 10 -7 10 -15z m-290 -110 c0 -8 -4 -15 -10 -15 -5 0
-10 7 -10 15 0 8 5 15 10 15 6 0 10 -7 10 -15z m-136 -51 c9 -3 16 -11 16 -18
0 -16 -36 -37 -54 -30 -8 3 -16 -1 -19 -10 -4 -13 -5 -13 -3 1 1 12 11 19 29
21 23 3 26 6 17 23 -12 21 -10 22 14 13z m163 -19 c6 -14 7 -25 2 -25 -5 0 -9
3 -9 8 0 4 -14 7 -30 7 -22 0 -29 -4 -25 -14 4 -11 3 -12 -10 -1 -20 17 -19
37 3 43 40 11 57 6 69 -18z m96 6 c-3 -11 -15 -21 -27 -23 -17 -3 -22 1 -24
16 -1 16 5 21 27 23 24 2 28 -1 24 -16z m79 -4 c4 -21 1 -23 -21 -19 -14 3
-20 7 -13 9 6 3 12 11 12 19 0 23 17 16 22 -9z m-422 -39 c0 -18 3 -44 6 -58
5 -22 4 -23 -6 -7 -7 12 -18 16 -31 12 -11 -4 -19 -2 -19 4 0 6 -5 11 -11 11
-6 0 -8 -9 -4 -21 7 -20 6 -20 -14 -3 l-20 18 28 12 c17 7 31 22 35 38 9 38
36 34 36 -6z m353 2 c-3 -12 -8 -19 -11 -16 -5 6 5 36 12 36 2 0 2 -9 -1 -20z
m-273 -37 c-1 -14 -27 -43 -39 -43 -15 0 -14 17 2 35 13 15 37 20 37 8z m30
-28 c0 -8 -7 -15 -15 -15 -26 0 -18 20 13 29 1 1 2 -6 2 -14z m460 -9 c0 -8
-7 -16 -15 -20 -17 -6 -18 -4 -9 18 8 20 24 21 24 2z m-170 -36 c0 -5 -4 -10
-10 -10 -5 0 -10 5 -10 10 0 6 5 10 10 10 6 0 10 -4 10 -10z m125 0 c-3 -5
-10 -10 -16 -10 -5 0 -18 -9 -29 -20 -20 -20 -87 -29 -75 -10 3 6 17 10 31 10
13 0 24 4 24 10 0 5 15 14 33 19 17 5 33 10 35 10 2 1 0 -3 -3 -9z m-646 -41
c-24 -15 -30 -10 -11 9 9 10 19 14 21 9 2 -5 -3 -13 -10 -18z m221 16 c0 -8
-4 -15 -10 -15 -5 0 -10 7 -10 15 0 8 5 15 10 15 6 0 10 -7 10 -15z m60 5 c0
-5 -9 -10 -20 -10 -11 0 -20 5 -20 10 0 6 9 10 20 10 11 0 20 -4 20 -10z m40
-6 c0 -17 -22 -14 -28 4 -2 7 3 12 12 12 9 0 16 -7 16 -16z m80 -14 c0 -5 8
-11 18 -12 9 0 -3 -4 -28 -7 -51 -7 -79 -3 -59 9 7 5 18 6 25 3 6 -2 15 0 19
6 8 14 25 14 25 1z m-242 -54 c12 -3 11 -4 -3 -3 -12 1 -20 10 -21 22 -1 14 0
15 3 3 2 -9 12 -19 21 -22z m82 18 c0 -7 -6 -15 -12 -18 -7 -4 9 -4 37 -1 28
3 45 1 40 -4 -13 -11 -96 -31 -129 -31 -13 0 -26 -5 -28 -11 -2 -6 -24 -12
-48 -14 -25 -1 -34 0 -20 2 14 3 27 8 30 11 10 14 51 32 71 32 15 0 19 4 15
16 -3 9 -4 20 -1 24 8 13 45 8 45 -6z m462 -41 c58 -22 70 -40 45 -65 -7 -7
-20 -35 -29 -63 l-17 -50 0 52 c-1 33 -7 57 -17 67 -14 15 -38 76 -29 76 3 0
24 -8 47 -17z m-672 -43 c0 -5 -6 -10 -12 -10 -7 0 -24 -3 -38 -6 -24 -5 -24
-5 -6 10 22 18 56 21 56 6z m730 -210 c3 -4 38 -17 78 -30 39 -13 72 -29 72
-34 0 -6 -9 -36 -20 -66 -11 -30 -20 -63 -20 -72 0 -21 -18 -22 -70 -7 -37 11
-38 12 -43 72 -3 33 -9 63 -15 66 -12 8 -33 71 -27 82 6 8 36 1 45 -11z m75
-260 c3 -5 2 -10 -4 -10 -5 0 -13 5 -16 10 -3 6 -2 10 4 10 5 0 13 -4 16 -10z
m-205 -35 c1 -13 47 -65 58 -65 5 0 15 -6 21 -14 7 -8 25 -18 41 -21 35 -8 41
-21 23 -62 -14 -36 -33 -42 -57 -18 -8 8 -21 15 -29 15 -24 0 -121 43 -133 59
-13 16 -1 53 23 79 7 7 13 24 13 38 0 22 2 23 20 12 11 -7 20 -17 20 -23z"/>
<path d="M8798 13250 c12 -5 22 -18 22 -30 0 -11 5 -20 10 -20 6 0 10 6 10 14
0 8 6 16 13 19 19 7 6 14 -38 21 -30 4 -35 3 -17 -4z"/>
<path d="M8877 13216 c5 -22 1 -25 -40 -31 -25 -4 -49 -5 -54 -2 -5 3 -9 -6
-8 -21 0 -28 30 -44 38 -20 2 7 3 1 1 -14 -3 -24 0 -27 24 -25 25 2 27 5 24
32 -3 17 -10 33 -16 37 -8 5 -7 8 2 8 12 0 30 -34 37 -72 2 -10 13 -27 24 -40
12 -12 21 -31 21 -42 1 -20 2 -20 14 -3 7 9 16 17 20 17 9 0 8 -37 -1 -43 -5
-2 -2 -2 6 0 25 6 81 -18 82 -35 0 -11 2 -13 6 -4 3 7 -1 20 -9 29 -11 14 -11
16 1 9 8 -5 16 -4 20 2 9 15 48 4 56 -15 9 -24 -4 -29 -20 -7 -9 12 -14 14
-15 6 0 -7 7 -20 15 -29 14 -14 18 -13 36 8 19 22 19 24 3 36 -10 7 -14 16
-11 20 9 8 36 -27 37 -47 0 -9 -5 -21 -11 -27 -8 -8 -8 -16 0 -30 10 -17 10
-17 11 0 0 10 5 15 10 12 6 -4 10 -3 9 2 -4 21 2 33 16 33 8 0 15 -9 15 -21 0
-11 4 -18 9 -15 5 4 7 -2 4 -13 -4 -17 23 -38 35 -26 3 3 0 5 -6 5 -7 0 -12 7
-12 15 0 15 16 21 22 8 2 -5 17 -15 33 -24 21 -11 29 -22 28 -37 -2 -12 -1
-22 2 -22 9 0 50 25 58 35 6 6 10 6 14 -2 3 -10 8 -9 19 2 8 8 21 12 29 9 17
-7 20 -24 5 -24 -5 0 -10 -7 -10 -15 0 -9 -7 -18 -15 -21 -19 -8 -19 -31 -1
-50 21 -20 23 -18 18 16 -2 17 0 30 6 30 6 0 12 -12 14 -27 3 -26 4 -26 21 -8
10 10 17 26 14 35 -3 10 0 24 5 31 10 14 6 -35 -8 -95 -5 -19 -3 -27 3 -23 6
4 13 19 16 34 9 38 25 61 35 48 4 -6 20 -17 35 -25 16 -8 24 -16 18 -18 -16
-5 -13 -49 4 -56 8 -3 15 -1 15 4 0 6 7 10 15 10 10 0 14 -7 12 -22 -2 -13 -2
-17 0 -10 7 19 23 14 49 -14 29 -30 30 -37 5 -29 -16 5 -18 2 -14 -15 6 -21
29 -28 35 -10 2 5 18 14 36 19 20 6 30 6 27 0 -4 -5 0 -9 8 -9 8 0 18 -12 21
-26 5 -19 11 -24 26 -19 12 4 20 2 20 -4 0 -6 5 -11 10 -11 6 0 10 7 10 16 0
20 20 13 34 -12 19 -33 46 -45 46 -20 0 8 7 17 16 20 21 8 18 9 44 -14 27 -24
40 -25 40 -5 0 8 5 15 10 15 6 0 10 -4 10 -10 0 -5 11 -10 25 -10 16 0 25 -6
25 -16 0 -8 5 -12 10 -9 16 10 12 40 -7 59 -45 43 -75 66 -87 66 -7 0 -23 10
-35 22 -21 19 -54 35 -113 55 -10 3 -18 9 -18 12 0 4 -22 18 -50 31 -27 13
-50 27 -50 32 0 4 -6 8 -13 8 -8 0 -22 9 -32 20 -10 11 -23 20 -29 20 -6 0
-17 9 -24 20 -7 11 -19 20 -26 20 -8 0 -22 7 -31 16 -8 9 -26 17 -40 18 -13 0
-23 5 -22 10 1 5 -11 13 -28 19 -16 5 -32 13 -35 17 -7 10 -94 50 -108 50 -7
0 -12 4 -12 9 0 5 -21 19 -47 32 -27 12 -52 29 -56 36 -4 7 -13 13 -20 13 -7
0 -23 10 -37 23 -14 13 -43 28 -65 34 -54 15 -109 36 -115 45 -3 4 -33 10 -67
12 -61 6 -62 5 -65 -21 -4 -35 -28 -43 -28 -9 0 14 6 26 13 26 8 0 7 4 -3 10
-23 15 -28 12 -23 -14z m50 -78 c-3 -8 -6 -5 -6 6 -1 11 2 17 5 13 3 -3 4 -12
1 -19z m253 -43 c0 -8 -2 -15 -4 -15 -2 0 -6 7 -10 15 -3 8 -1 15 4 15 6 0 10
-7 10 -15z m227 -127 c-3 -8 -6 -5 -6 6 -1 11 2 17 5 13 3 -3 4 -12 1 -19z
m-26 -81 c-8 -8 -14 -8 -23 1 -9 9 -8 12 5 12 9 0 17 6 18 13 0 9 2 8 6 -1 3
-8 0 -19 -6 -25z m189 3 c0 -5 -7 -10 -15 -10 -8 0 -15 5 -15 10 0 6 7 10 15
10 8 0 15 -4 15 -10z m309 -243 c8 -10 7 -19 -4 -33 -11 -14 -14 -15 -9 -3 3
10 1 20 -5 24 -13 8 -15 25 -2 25 5 0 14 -6 20 -13z m91 -57 c0 -5 -7 -10 -16
-10 -8 0 -12 5 -9 10 3 6 10 10 16 10 5 0 9 -4 9 -10z"/>
<path d="M8751 13094 c0 -11 3 -14 6 -6 3 7 2 16 -1 19 -3 4 -6 -2 -5 -13z"/>
<path d="M8826 13071 c-3 -5 5 -8 19 -7 14 0 25 4 25 9 0 10 -38 9 -44 -2z"/>
<path d="M8887 13039 c6 -22 23 -26 23 -5 0 8 -6 16 -14 19 -10 4 -12 0 -9
-14z"/>
<path d="M9280 12866 c0 -8 5 -18 10 -21 6 -3 10 1 10 9 0 8 -4 18 -10 21 -5
3 -10 -1 -10 -9z"/>
<path d="M9390 12824 c0 -8 5 -12 10 -9 6 3 10 10 10 16 0 5 -4 9 -10 9 -5 0
-10 -7 -10 -16z"/>
<path d="M9540 12760 c0 -19 5 -30 14 -30 8 0 17 -6 19 -12 10 -25 7 20 -3 46
-13 35 -30 33 -30 -4z"/>
<path d="M9630 12650 c0 -5 5 -10 11 -10 5 0 7 5 4 10 -3 6 -8 10 -11 10 -2 0
-4 -4 -4 -10z"/>
<path d="M9750 12623 c1 -16 26 -40 47 -45 27 -7 20 18 -8 27 -10 4 -19 11
-19 16 0 5 -4 9 -10 9 -5 0 -10 -3 -10 -7z"/>
<path d="M10170 12530 c0 -5 7 -10 15 -10 8 0 15 5 15 10 0 6 -7 10 -15 10 -8
0 -15 -4 -15 -10z"/>
<path d="M10211 12504 c0 -11 3 -14 6 -6 3 7 2 16 -1 19 -3 4 -6 -2 -5 -13z"/>
<path d="M10290 12447 c0 -10 8 -17 18 -17 9 0 13 4 7 8 -5 4 -13 11 -17 16
-5 5 -8 2 -8 -7z"/>
<path d="M10620 12086 c0 -8 4 -17 9 -20 5 -4 7 3 4 14 -6 23 -13 26 -13 6z"/>
<path d="M4152 11834 c-12 -8 -22 -21 -22 -28 0 -8 -11 -21 -25 -30 -14 -9
-25 -21 -25 -27 0 -6 -35 -46 -77 -88 -72 -72 -87 -91 -117 -146 -6 -11 -14
-22 -17 -25 -3 -3 -16 -27 -29 -55 -13 -27 -27 -52 -31 -55 -12 -8 -49 -93
-49 -112 0 -10 -4 -18 -9 -18 -5 0 -13 -13 -19 -28 -5 -16 -16 -35 -23 -43
-27 -27 -46 -64 -53 -99 -6 -34 -6 -33 15 10 12 25 28 49 35 53 8 4 14 14 14
22 0 8 8 12 23 9 19 -4 20 -3 3 4 -25 11 -9 21 27 17 15 -2 27 1 27 6 0 5 6 9
13 9 7 0 21 11 31 25 10 14 27 25 37 25 11 0 19 7 19 15 0 8 5 15 11 15 5 0 7
5 4 10 -3 6 0 10 7 10 7 0 19 14 26 30 9 19 21 30 35 31 12 0 16 3 10 6 -18 7
-16 40 2 47 8 3 15 14 15 25 0 11 7 26 15 35 8 8 15 19 15 25 0 6 5 11 10 11
6 0 10 9 10 20 0 11 5 20 10 20 6 0 10 9 10 20 0 11 -5 20 -12 20 -6 0 -3 6 8
14 16 13 17 18 6 33 -22 32 -26 47 -14 51 7 2 12 10 12 18 0 8 5 14 10 14 6 0
10 7 10 15 0 8 4 15 8 15 4 0 16 15 27 33 10 17 26 37 34 44 23 18 9 16 -17
-3z"/>
<path d="M10937 11454 c6 -15 23 -19 23 -5 0 5 -7 11 -14 14 -10 4 -13 1 -9
-9z"/>
<path d="M11000 11275 c0 -8 5 -15 10 -15 6 0 10 7 10 15 0 8 -4 15 -10 15 -5
0 -10 -7 -10 -15z"/>
<path d="M11068 11193 c7 -3 16 -2 19 1 4 3 -2 6 -13 5 -11 0 -14 -3 -6 -6z"/>
<path d="M11167 11067 c-6 -18 3 -37 19 -37 18 0 18 36 0 43 -8 3 -16 0 -19
-6z"/>
<path d="M3609 10973 c-12 -32 -26 -60 -30 -63 -9 -6 -29 -56 -29 -71 0 -5 8
-9 18 -9 23 0 45 36 37 61 -4 11 -2 19 5 19 7 0 10 7 6 15 -3 8 -1 15 4 15 6
0 10 11 10 25 0 14 5 25 10 25 6 0 10 9 10 20 0 37 -17 21 -41 -37z"/>
<path d="M3533 10812 c-4 -9 -12 -22 -19 -29 -6 -7 -20 -45 -29 -85 -10 -40
-22 -75 -26 -78 -10 -7 -49 -98 -49 -115 0 -7 -4 -15 -9 -17 -5 -1 -11 -16
-13 -33 -3 -16 -3 -24 -1 -17 3 6 9 12 14 12 5 0 9 7 9 15 0 8 5 15 11 15 6 0
9 7 6 15 -4 8 0 27 8 42 8 15 15 35 15 44 0 9 6 19 14 22 7 3 16 24 20 46 4
29 18 52 47 82 32 32 38 44 27 51 -10 7 -10 11 0 15 17 7 15 20 -3 27 -10 3
-18 -1 -22 -12z"/>
<path d="M3371 10394 c0 -11 3 -14 6 -6 3 7 2 16 -1 19 -3 4 -6 -2 -5 -13z"/>
<path d="M11590 10335 c0 -8 5 -15 10 -15 6 0 10 7 10 15 0 8 -4 15 -10 15 -5
0 -10 -7 -10 -15z"/>
<path d="M11720 10245 c0 -8 5 -15 10 -15 6 0 10 7 10 15 0 8 -4 15 -10 15 -5
0 -10 -7 -10 -15z"/>
<path d="M11760 10090 c0 -11 5 -20 10 -20 6 0 10 9 10 20 0 11 -4 20 -10 20
-5 0 -10 -9 -10 -20z"/>
<path d="M11820 9870 c0 -5 5 -10 10 -10 6 0 10 5 10 10 0 6 -4 10 -10 10 -5
0 -10 -4 -10 -10z"/>
<path d="M11842 9800 c0 -14 2 -19 5 -12 2 6 2 18 0 25 -3 6 -5 1 -5 -13z"/>
<path d="M11848 9748 c-3 -21 -4 -21 -21 -4 -10 10 -21 15 -25 11 -4 -4 -1
-10 7 -13 7 -2 22 -13 32 -23 19 -19 19 -18 19 16 0 39 -7 47 -12 13z"/>
<path d="M11804 9698 c3 -7 7 -26 10 -43 5 -22 4 -26 -4 -15 -8 12 -10 11 -10
-7 0 -13 4 -23 9 -23 4 0 6 -11 3 -25 -2 -14 -8 -25 -12 -25 -5 0 -5 -14 0
-31 6 -20 5 -37 -2 -48 -9 -15 -7 -51 7 -103 2 -5 3 -12 4 -18 0 -5 8 -7 16
-4 11 4 15 -1 15 -17 1 -22 2 -23 14 -6 19 25 29 21 22 -9 -6 -24 -5 -25 9
-11 8 9 15 25 15 37 0 16 -4 20 -19 15 -11 -3 -23 -1 -27 6 -4 7 -2 10 7 7 27
-9 52 35 27 45 -10 4 -10 6 0 6 14 1 17 101 3 101 -6 0 -13 33 -17 73 -4 39
-9 66 -11 60 -8 -22 -23 -14 -23 11 0 13 -7 27 -16 30 -22 8 -24 8 -20 -6z
m33 -324 c-3 -3 -12 -4 -19 -1 -8 3 -5 6 6 6 11 1 17 -2 13 -5z"/>
<path d="M11781 9514 c0 -11 3 -14 6 -6 3 7 2 16 -1 19 -3 4 -6 -2 -5 -13z"/>
<path d="M11915 8865 c-4 -31 -5 -58 -3 -61 3 -2 8 21 12 52 4 31 5 59 2 61
-2 3 -8 -21 -11 -52z"/>
<path d="M11893 8773 c-15 -5 -17 -23 -4 -23 5 0 11 7 15 15 3 8 4 15 3 14 -1
0 -8 -3 -14 -6z"/>
<path d="M11700 7760 c0 -11 5 -20 10 -20 6 0 10 9 10 20 0 11 -4 20 -10 20
-5 0 -10 -9 -10 -20z"/>
<path d="M11670 7702 c-16 -17 -20 -27 -12 -30 17 -5 15 -32 -2 -32 -8 0 -16
6 -19 13 -2 6 -7 -3 -11 -20 -4 -18 -13 -33 -19 -33 -16 0 -41 -56 -33 -75 3
-8 2 -15 -3 -15 -11 0 -13 -68 -2 -75 5 -2 12 6 15 20 4 14 11 25 16 25 6 0
10 5 10 11 0 14 42 102 52 109 7 6 40 122 35 125 -1 1 -13 -9 -27 -23z"/>
<path d="M11530 7415 c0 -8 5 -15 10 -15 6 0 10 -7 10 -16 0 -8 5 -12 10 -9
16 10 12 42 -6 49 -22 9 -24 8 -24 -9z"/>
<path d="M11511 7304 c0 -11 3 -14 6 -6 3 7 2 16 -1 19 -3 4 -6 -2 -5 -13z"/>
<path d="M11203 6780 c-3 -11 -9 -20 -14 -20 -4 0 -13 -10 -20 -22 -8 -16 -2
-13 20 10 29 31 39 52 25 52 -3 0 -8 -9 -11 -20z"/>
<path d="M8660 11275 c0 -8 5 -15 10 -15 6 0 10 7 10 15 0 8 -4 15 -10 15 -5
0 -10 -7 -10 -15z"/>
<path d="M8490 10672 c0 -5 7 -13 16 -16 10 -4 14 -1 12 6 -5 15 -28 23 -28
10z"/>
<path d="M5843 10310 c2 -43 6 -56 20 -58 21 -4 24 40 3 60 -8 8 -16 23 -19
34 -3 10 -5 -6 -4 -36z"/>
<path d="M5910 9930 c0 -5 5 -10 10 -10 6 0 10 5 10 10 0 6 -4 10 -10 10 -5 0
-10 -4 -10 -10z"/>
<path d="M9758 8518 c-5 -14 35 -58 52 -58 13 0 13 13 -2 45 -12 26 -43 34
-50 13z"/>
<path d="M9870 8395 c-7 -13 -10 -28 -6 -33 7 -11 -12 -114 -23 -122 -10 -9
-41 -68 -41 -80 0 -17 -65 -80 -84 -80 -9 0 -19 -6 -22 -14 -3 -8 -19 -18 -35
-21 -16 -4 -31 -11 -34 -16 -4 -5 -14 -9 -24 -9 -21 0 -61 -32 -61 -49 0 -6 7
-11 17 -11 24 0 123 33 123 41 0 4 10 9 23 12 25 7 107 80 107 96 0 6 8 19 18
29 26 28 51 82 58 129 3 23 13 44 20 47 21 8 17 69 -5 88 -17 15 -20 14 -31
-7z"/>
<path d="M9681 8344 c0 -11 3 -14 6 -6 3 7 2 16 -1 19 -3 4 -6 -2 -5 -13z"/>
<path d="M7205 8256 c-13 -10 -19 -27 -19 -63 -1 -45 3 -54 37 -89 20 -21 37
-42 37 -46 0 -15 38 -8 44 8 10 25 -4 63 -26 69 -27 9 -41 51 -28 88 5 17 10
34 10 38 0 14 -34 11 -55 -5z"/>
<path d="M9600 8215 c0 -14 5 -25 10 -25 6 0 10 11 10 25 0 14 -4 25 -10 25
-5 0 -10 -11 -10 -25z"/>
<path d="M8231 7758 c-2 -27 -23 -68 -36 -68 -6 0 -19 -27 -29 -60 -10 -33
-22 -60 -27 -60 -5 0 -9 -14 -9 -30 0 -25 -6 -33 -35 -47 -19 -9 -35 -20 -35
-24 0 -3 -28 -17 -62 -30 -35 -12 -65 -26 -68 -30 -3 -4 -37 -17 -75 -30 -39
-12 -72 -25 -75 -29 -10 -15 -150 -40 -219 -40 -41 0 -71 -4 -71 -10 0 -13
-87 -13 -92 -1 -1 5 -45 11 -96 12 -73 2 -95 0 -103 -12 -15 -24 -4 -34 46
-40 27 -3 51 -11 53 -17 4 -14 242 -17 242 -4 0 5 42 13 93 19 101 13 175 32
194 49 7 7 30 15 52 19 22 4 49 15 61 25 12 10 38 21 59 25 22 3 47 15 58 24
11 10 29 21 40 25 18 6 21 1 26 -36 3 -23 11 -44 17 -46 6 -2 20 -21 30 -43
11 -21 27 -39 35 -39 8 0 19 -9 25 -20 13 -25 77 -52 102 -44 31 9 20 46 -18
58 -27 8 -81 62 -90 89 -3 12 -15 30 -25 40 -15 14 -19 32 -19 87 0 43 5 73
13 82 7 7 19 34 26 59 7 25 26 61 42 80 36 42 38 62 5 53 -18 -4 -25 -1 -29
13 -4 15 -5 16 -6 1z"/>
<path d="M8077 7363 c-4 -3 -7 -11 -7 -17 0 -6 5 -4 10 4 9 13 11 13 19 0 11
-16 27 -7 16 9 -7 12 -28 14 -38 4z"/>
<path d="M8717 9870 c-3 -13 0 -20 9 -20 8 0 14 9 14 20 0 11 -4 20 -9 20 -5
0 -11 -9 -14 -20z"/>
<path d="M8730 9830 c-13 -8 -13 -10 2 -10 9 0 20 5 23 10 8 13 -5 13 -25 0z"/>
<path d="M8160 8520 c0 -11 2 -20 5 -20 2 0 9 9 15 20 9 16 8 20 -5 20 -8 0
-15 -9 -15 -20z"/>
<path d="M5995 8679 c-11 -17 1 -21 15 -4 8 9 8 15 2 15 -6 0 -14 -5 -17 -11z"/>
<path d="M6050 8686 c0 -2 7 -7 16 -10 8 -3 12 -2 9 4 -6 10 -25 14 -25 6z"/>
<path d="M6030 8645 c0 -8 5 -15 10 -15 6 0 10 7 10 15 0 8 -4 15 -10 15 -5 0
-10 -7 -10 -15z"/>
</g>
</svg>
