<?xml version="1.0" encoding="UTF-8" standalone="no"?>
<!DOCTYPE svg PUBLIC "-//W3C//DTD SVG 1.1//EN" "http://www.w3.org/Graphics/SVG/1.1/DTD/svg11.dtd">
<svg width="100%" height="100%" viewBox="0 0 38 38" version="1.1" xmlns="http://www.w3.org/2000/svg" xmlns:xlink="http://www.w3.org/1999/xlink" xml:space="preserve" xmlns:serif="http://www.serif.com/" style="fill-rule:evenodd;clip-rule:evenodd;stroke-linejoin:round;stroke-miterlimit:2;">
    <g transform="matrix(-0.801803,-9.81925e-17,9.81925e-17,-0.801803,35.036,34.2343)">
        <path d="M16.251,27.749C15.565,27.749 15.001,27.185 15.001,26.499C15.001,26.168 15.133,25.849 15.367,25.615L21.982,19L15.367,12.385C15.133,12.151 15.001,11.832 15.001,11.501C15.001,10.815 15.565,10.251 16.251,10.251C16.582,10.251 16.901,10.383 17.135,10.617L24.635,18.117C25.12,18.602 25.12,19.4 24.635,19.885L17.135,27.385C16.9,27.619 16.582,27.75 16.251,27.749Z" style="fill-rule:nonzero;"/>
    </g>
</svg>
