<svg xmlns="http://www.w3.org/2000/svg" xmlns:xlink="http://www.w3.org/1999/xlink" width="100%" height="100%" version="1.1" viewBox="0 0 460 460" xml:space="preserve" style="fill-rule:evenodd;clip-rule:evenodd;stroke-linejoin:round;stroke-miterlimit:2"><g><g><path d="M250.77,26.47C374.71,26.36 475.37,127 475.35,250.89C475.35,374.62 374.96,475.05 251.15,475.24C127.34,475.43 26.54,374.65 26.56,250.8C26.58,126.95 127,26.58 250.77,26.47ZM362.17,174.12C365.85,175.65 368.3,176.48 370.58,177.66C376.12,180.5 378.41,186.89 376.58,193.95C375.25,199.17 371.72,201.35 365.07,201.64C354.83,202.09 345.48,198.64 336.17,195.24C322.55,190.24 309.17,184.4 295.43,179.82C278.43,174.16 261.95,174.98 247.43,187.19C246.294,188.024 245.094,188.767 243.84,189.41C243.18,188.9 242.84,188.77 242.72,188.53C242.26,187.53 241.82,186.59 241.44,185.6C237.9,176.2 231.67,169.6 222.08,166.11C212.49,162.62 202.35,163.24 192.61,164.51C166.07,168 146.1,183.15 129.44,202.92C111.74,223.92 102.62,248.08 103.91,276C104.62,291.16 110.71,303.07 122.41,312.27C138.08,324.6 156.58,325.46 174.91,322.81C213.35,317.24 244.74,298.03 270.91,269.72C272.029,268.741 273.219,267.845 274.47,267.04C274.04,269.92 273.86,271.71 273.47,273.46C268.803,296.693 264.137,319.92 259.47,343.14C258.31,348.91 259.3,349.72 265.04,348.14C275.5,345.22 285.91,342.14 296.46,339.56C301.77,338.28 304.06,335.71 305.09,330.21C311.09,298.21 317.6,266.33 323.77,234.37C324.46,230.79 325.94,229.37 329.52,229.54C333.52,229.74 337.52,229.65 341.44,229.54C371.83,228.98 393.52,210.09 397.21,180.22C398.34,171.13 395.77,162.33 390.54,154.54C388.84,152.01 387.06,151.92 384.86,153.82C380.94,157.22 376.92,160.5 373.04,163.95C369.58,167.05 366.26,170.29 362.17,174.12Z" transform="matrix(1,0,0,1,-0.955,-0.855089) matrix(1,0,0,1,-20,-20)" style="fill-rule:nonzero"/></g><g><path d="M181.55,300.66C164.78,301.22 152,290.24 148.83,277.76C147.926,273.592 147.357,269.359 147.13,265.1C146.81,261.44 148.76,260.25 152.39,259.89C162.84,258.89 173.39,258.13 183.63,255.89C200.07,252.29 214.79,244.61 226.24,232.1C231.72,226.1 235.96,218.84 240.01,211.72C241.77,208.61 243.69,207.08 246.91,206.72C259.79,205.38 271.37,209.58 282.39,215.55C283.55,216.18 284.21,219.27 283.84,220.95C281.331,232.202 276.094,242.667 268.59,251.42C251.11,272.22 230,288 203.87,296.19C196.67,298.45 189,299.21 181.55,300.66Z" transform="matrix(1,0,0,1,-0.955,-0.855089) matrix(1,0,0,1,-20,-20)" style="fill-rule:nonzero"/></g><g><path d="M203.51,202C203.01,221.72 193.51,233.63 178.06,240.53C170.58,243.87 161.95,244.7 153.79,246.41C150.51,247.1 149.38,244.96 149.85,241.98C152.74,223.64 157.77,206.06 170.04,191.55C174.67,186.06 180.65,182.44 188.41,182.75C194.75,183.01 199.22,185.75 201.26,191.82C202.232,195.161 202.983,198.561 203.51,202Z" transform="matrix(1,0,0,1,-0.955,-0.855089) matrix(1,0,0,1,-20,-20)" style="fill-rule:nonzero"/></g></g></svg>